<svg width="126" height="182" viewBox="0 0 126 182" fill="none" xmlns="http://www.w3.org/2000/svg">
<rect y="9" width="126" height="131" rx="21" fill="#8C2F04"/>
<rect y="9" width="126" height="106" rx="21" fill="#A8530D"/>
<rect x="8" y="18" width="110" height="68" rx="14" fill="#8C2F04"/>
<rect x="8" y="26" width="110" height="81" rx="14" fill="#BBB313"/>
<circle cx="24" cy="127" r="3" fill="#4B1902"/>
<circle cx="24" cy="122" r="1" fill="#D9A209"/>
<circle cx="28" cy="125" r="1" fill="#D9A209"/>
<circle cx="28" cy="129" r="1" fill="#D9A209"/>
<circle cx="24" cy="132" r="1" fill="#D9A209"/>
<circle cx="20" cy="129" r="1" fill="#D9A209"/>
<circle cx="20" cy="125" r="1" fill="#D9A209"/>
<circle cx="50" cy="128" r="3" fill="#4B1902"/>
<circle cx="50" cy="123" r="1" fill="#D9A209"/>
<circle cx="54" cy="126" r="1" fill="#D9A209"/>
<circle cx="54" cy="130" r="1" fill="#D9A209"/>
<circle cx="50" cy="133" r="1" fill="#D9A209"/>
<circle cx="46" cy="130" r="1" fill="#D9A209"/>
<circle cx="46" cy="126" r="1" fill="#D9A209"/>
<circle cx="76" cy="128" r="3" fill="#4B1902"/>
<circle cx="76" cy="123" r="1" fill="#D9A209"/>
<circle cx="80" cy="126" r="1" fill="#D9A209"/>
<circle cx="80" cy="130" r="1" fill="#D9A209"/>
<circle cx="76" cy="133" r="1" fill="#D9A209"/>
<circle cx="72" cy="130" r="1" fill="#D9A209"/>
<circle cx="72" cy="126" r="1" fill="#D9A209"/>
<circle cx="102" cy="128" r="3" fill="#4B1902"/>
<circle cx="102" cy="123" r="1" fill="#D9A209"/>
<circle cx="106" cy="126" r="1" fill="#D9A209"/>
<circle cx="106" cy="130" r="1" fill="#D9A209"/>
<circle cx="102" cy="133" r="1" fill="#D9A209"/>
<circle cx="98" cy="130" r="1" fill="#D9A209"/>
<circle cx="98" cy="126" r="1" fill="#D9A209"/>
<rect x="14" y="28" width="29" height="73" rx="7" fill="#FF9811"/>
<rect x="14" y="87" width="29" height="16" rx="8" fill="#FFB655"/>
<rect x="16" y="89" width="25" height="12" rx="6" fill="#CC7400"/>
<rect x="34" y="92.1642" width="5" height="3.9403" rx="1.97015" fill="#AA6100"/>
<rect x="26" y="96.1045" width="5" height="3.9403" rx="1.97015" fill="#AA6100"/>
<rect x="21" y="91.1791" width="5" height="3.9403" rx="1.97015" fill="#AA6100"/>
<rect x="49" y="29" width="29" height="73" rx="7" fill="#FF9811"/>
<rect x="49" y="88" width="29" height="16" rx="8" fill="#FFB655"/>
<rect x="51" y="90" width="25" height="12" rx="6" fill="#CC7400"/>
<rect x="69" y="93.1642" width="5" height="3.9403" rx="1.97015" fill="#AA6100"/>
<rect x="61" y="97.1045" width="5" height="3.9403" rx="1.97015" fill="#AA6100"/>
<rect x="56" y="92.1791" width="5" height="3.9403" rx="1.97015" fill="#AA6100"/>
<rect x="84" y="29" width="29" height="73" rx="7" fill="#FF9811"/>
<rect x="84" y="88" width="29" height="16" rx="8" fill="#FFB655"/>
<rect x="86" y="90" width="25" height="12" rx="6" fill="#CC7400"/>
<rect x="104" y="93.1642" width="5" height="3.9403" rx="1.97015" fill="#AA6100"/>
<rect x="96" y="97.1045" width="5" height="3.9403" rx="1.97015" fill="#AA6100"/>
<rect x="91" y="92.1791" width="5" height="3.9403" rx="1.97015" fill="#AA6100"/>
<g filter="url(#filter0_d_421_2)">
<rect x="108.713" y="9" width="8" height="41.0986" rx="3" transform="rotate(44.3182 108.713 9)" fill="#8C2F04"/>
<rect x="108.282" y="8.38364" width="8" height="41.0986" rx="3" transform="rotate(44.3182 108.282 8.38364)" fill="#A8530D"/>
<ellipse cx="68.4668" cy="55.5994" rx="16.5" ry="23.5" transform="rotate(44.3182 68.4668 55.5994)" fill="#A8530D"/>
<ellipse cx="67.9673" cy="55.8836" rx="14.5" ry="21.614" transform="rotate(44.3182 67.9673 55.8836)" fill="#BBB313"/>
<rect x="50.1159" y="59.1246" width="18" height="22" rx="9" transform="rotate(-5.8065 50.1159 59.1246)" fill="#A7A011"/>
<rect x="48.8175" y="56.2412" width="20" height="24" rx="10" transform="rotate(-5.8065 48.8175 56.2412)" fill="#BBB313"/>
</g>
<path d="M2.5752 172.537C2.2959 172.537 2.06315 172.483 1.87695 172.376C1.69076 172.269 1.58333 172.161 1.55469 172.054L1.51172 171.893C1.86263 171.685 2.09538 171.492 2.20996 171.312C2.33171 171.141 2.42122 171.008 2.47852 170.915C2.54297 170.815 2.59668 170.664 2.63965 170.464L2.73633 169.97C2.75781 169.848 2.77214 169.64 2.7793 169.347C2.79362 169.046 2.80078 168.802 2.80078 168.616V167.714C2.80078 165.888 2.44987 164.667 1.74805 164.051C1.59766 163.929 1.59766 163.797 1.74805 163.653C1.82682 163.582 1.9235 163.478 2.03809 163.342C2.15983 163.206 2.27799 163.016 2.39258 162.772C2.66471 162.185 2.80078 161.276 2.80078 160.044C2.80078 159.22 2.75781 158.558 2.67188 158.057C2.5931 157.555 2.46061 157.14 2.27441 156.811C2.08822 156.481 1.8304 156.162 1.50098 155.854C1.50098 155.597 1.7015 155.407 2.10254 155.285C2.25293 155.242 2.47135 155.221 2.75781 155.221C3.04427 155.221 3.35221 155.325 3.68164 155.532C4.01823 155.74 4.26172 155.944 4.41211 156.145L4.6377 156.456C5.31087 155.632 6.06999 155.221 6.91504 155.221C7.36621 155.221 7.83171 155.31 8.31152 155.489C8.7985 155.661 9.18164 155.915 9.46094 156.252C9.97656 155.564 10.5853 155.221 11.2871 155.221C11.7669 155.221 12.0498 155.385 12.1357 155.715C11.7777 155.987 11.5234 156.295 11.373 156.639C11.2298 156.982 11.1582 157.405 11.1582 157.906C11.1582 158.787 11.4482 159.45 12.0283 159.894C11.9782 160.094 11.8278 160.223 11.5771 160.28C11.3265 160.33 11.0508 160.32 10.75 160.248C10.4564 160.169 10.2129 160.04 10.0195 159.861L9.8584 159.7C9.4502 160.108 8.98112 160.312 8.45117 160.312C8.02865 160.312 7.77441 160.173 7.68848 159.894C8.19694 159.428 8.45117 158.891 8.45117 158.282C8.45117 157.602 8.06445 157.262 7.29102 157.262C6.51758 157.262 6.13086 157.509 6.13086 158.003V158.1L6.59277 162.901C7.38053 162.901 8 162.858 8.45117 162.772C8.90951 162.679 9.31055 162.515 9.6543 162.278C9.72591 162.278 9.79036 162.332 9.84766 162.439C9.91211 162.54 9.94434 162.665 9.94434 162.815C9.94434 163.202 9.69368 163.546 9.19238 163.847C9.32845 163.89 9.46094 163.986 9.58984 164.137C9.82617 164.402 9.94434 164.634 9.94434 164.835C9.94434 165.186 9.87272 165.383 9.72949 165.426L9.6543 165.447C9.0026 165.025 7.9821 164.813 6.59277 164.813L6.12012 169.529C6.12012 170.009 6.26335 170.306 6.5498 170.421C6.76465 170.514 7.04753 170.561 7.39844 170.561C7.73503 170.561 7.99642 170.432 8.18262 170.174C8.36882 169.909 8.46191 169.583 8.46191 169.196C8.46191 168.559 8.20768 167.993 7.69922 167.499C7.77083 167.213 7.9821 167.069 8.33301 167.069C8.94173 167.069 9.40007 167.223 9.70801 167.531L9.86914 167.692C10.2845 167.277 10.7572 167.069 11.2871 167.069C11.7025 167.069 11.9531 167.213 12.0391 167.499C11.459 167.957 11.1689 168.695 11.1689 169.712C11.1689 170.736 11.4948 171.52 12.1465 172.064C12.1465 172.243 11.9961 172.383 11.6953 172.483C11.5664 172.519 11.4339 172.537 11.2979 172.537C10.5889 172.537 9.98014 172.197 9.47168 171.517C9.18522 171.853 8.80566 172.107 8.33301 172.279C7.889 172.437 7.4987 172.519 7.16211 172.526C6.83268 172.534 6.56413 172.512 6.35645 172.462C6.06999 172.39 5.81934 172.286 5.60449 172.15C5.38965 172.021 5.22135 171.9 5.09961 171.785C4.91341 171.613 4.7666 171.456 4.65918 171.312C4.37272 171.799 3.92871 172.165 3.32715 172.408C3.10514 172.494 2.85449 172.537 2.5752 172.537ZM14.2949 172.548C14.0085 172.548 13.7721 172.505 13.5859 172.419C13.3424 172.297 13.1921 172.147 13.1348 171.968C13.6289 171.517 13.9798 171.022 14.1875 170.485C14.3236 170.134 14.4095 169.748 14.4453 169.325C14.4883 168.896 14.5026 168.487 14.4883 168.101C14.474 167.707 14.4489 167.388 14.4131 167.145C14.363 166.808 14.2842 166.543 14.1768 166.35C14.0765 166.149 13.987 165.995 13.9082 165.888C13.8151 165.766 13.7399 165.694 13.6826 165.673C13.6325 165.651 13.543 165.576 13.4141 165.447C13.4141 165.419 13.4893 165.347 13.6396 165.232C13.79 165.118 13.9476 164.917 14.1123 164.631C14.363 164.187 14.4883 163.496 14.4883 162.558C14.4883 161.619 14.3809 160.871 14.166 160.312C13.9512 159.754 13.5645 159.22 13.0059 158.712C13.1849 158.34 13.6826 158.153 14.499 158.153C15.3011 158.153 16.0137 158.69 16.6367 159.765C17.7897 158.526 18.9714 157.906 20.1816 157.906C21.3418 157.906 22.2835 158.3 23.0068 159.088C23.7373 159.868 24.1025 160.971 24.1025 162.396C24.1025 163.012 24.1491 163.557 24.2422 164.029C24.3353 164.495 24.4427 164.81 24.5645 164.975C24.6719 165.111 24.7757 165.229 24.876 165.329C24.9762 165.429 25.0264 165.497 25.0264 165.533C25.0264 165.569 24.9619 165.644 24.833 165.759C24.7041 165.866 24.568 166.056 24.4248 166.328C24.21 166.765 24.1025 167.438 24.1025 168.348C24.1025 169.257 24.1992 169.973 24.3926 170.496C24.5859 171.012 24.9368 171.502 25.4453 171.968C25.252 172.354 24.8294 172.548 24.1777 172.548C23.526 172.548 22.903 172.165 22.3086 171.398C21.7357 172.165 21.1842 172.548 20.6543 172.548C20.1172 172.548 19.7985 172.354 19.6982 171.968C20.2497 171.345 20.6113 170.593 20.7832 169.712C20.9551 168.831 20.9479 167.939 20.7617 167.037C20.6973 166.722 20.5898 166.461 20.4395 166.253C20.2891 166.038 20.1458 165.866 20.0098 165.737C19.8809 165.601 19.8164 165.497 19.8164 165.426C19.8164 165.404 19.8737 165.329 19.9883 165.2C20.11 165.064 20.2282 164.917 20.3428 164.76C20.4717 164.588 20.5898 164.291 20.6973 163.868C20.8118 163.446 20.8691 162.955 20.8691 162.396C20.8691 160.577 20.4466 159.668 19.6016 159.668C19.0645 159.668 18.6204 159.911 18.2695 160.398C17.9186 160.885 17.7432 161.616 17.7432 162.59C17.7432 163.148 17.7933 163.628 17.8936 164.029C17.9938 164.43 18.1012 164.706 18.2158 164.856C18.3161 165 18.4163 165.125 18.5166 165.232C18.624 165.333 18.6777 165.401 18.6777 165.437C18.6777 165.465 18.6097 165.548 18.4736 165.684C18.3447 165.82 18.2158 166.027 18.0869 166.307C17.8721 166.786 17.7646 167.474 17.7646 168.369C17.7646 169.271 17.8613 169.98 18.0547 170.496C18.248 171.012 18.599 171.502 19.1074 171.968C19.0573 172.111 18.932 172.243 18.7314 172.365C18.5381 172.487 18.3197 172.548 18.0762 172.548C17.3672 172.548 16.694 172.165 16.0566 171.398C15.4837 172.165 14.8965 172.548 14.2949 172.548ZM32.4277 172.752C29.5775 172.752 27.959 171.244 27.5723 168.229C27.4505 167.284 27.3109 166.668 27.1533 166.382C26.9886 166.103 26.8597 165.906 26.7666 165.791C26.695 165.705 26.627 165.633 26.5625 165.576C26.498 165.519 26.4658 165.472 26.4658 165.437V165.415C26.4658 165.365 26.5446 165.283 26.7021 165.168C26.8669 165.053 27.0173 164.874 27.1533 164.631C27.404 164.208 27.5293 163.532 27.5293 162.601C27.5651 161.125 27.9912 159.976 28.8076 159.152C29.624 158.329 30.7126 157.917 32.0732 157.917C32.9255 157.917 33.7992 158.182 34.6943 158.712C35.1312 158.97 35.4893 159.328 35.7686 159.786C36.055 160.237 36.1982 160.674 36.1982 161.097C36.1982 161.634 36.1481 162.092 36.0479 162.472C35.9476 162.851 35.8975 163.216 35.8975 163.567C35.8975 163.818 36.0085 164.112 36.2305 164.448C36.166 164.62 35.9941 164.706 35.7148 164.706C35.4355 164.706 35.1527 164.613 34.8662 164.427C34.5798 164.233 34.3649 164.044 34.2217 163.857L34.0068 163.578C33.7204 163.764 33.4303 163.857 33.1367 163.857C32.8431 163.85 32.6247 163.825 32.4814 163.782C32.3311 163.746 32.2165 163.7 32.1377 163.643C32.0589 163.585 31.9945 163.521 31.9443 163.449C31.8656 163.349 31.8262 163.259 31.8262 163.181L31.8369 163.127C32.0947 163.127 32.3382 163.02 32.5674 162.805C32.7965 162.59 32.9827 162.328 33.126 162.021C33.2692 161.705 33.3408 161.408 33.3408 161.129C33.3408 160.277 32.9255 159.851 32.0947 159.851C31.6507 159.851 31.3643 159.937 31.2354 160.108C31.0993 160.287 31.0026 160.438 30.9453 160.56C30.8952 160.674 30.8558 160.857 30.8271 161.107C30.8128 161.272 30.8021 161.469 30.7949 161.698C30.7878 161.92 30.7842 162.174 30.7842 162.461C30.7842 163.034 30.82 163.503 30.8916 163.868C30.9632 164.226 31.0527 164.491 31.1602 164.663C31.3105 164.899 31.4609 165.075 31.6113 165.189C31.7689 165.297 31.8477 165.376 31.8477 165.426C31.8477 165.469 31.7689 165.544 31.6113 165.651C31.4609 165.752 31.3105 165.916 31.1602 166.146C30.9095 166.539 30.7842 167.184 30.7842 168.079C30.7842 168.981 30.9525 169.662 31.2891 170.12C31.6328 170.571 32.1162 170.797 32.7393 170.797C33.4268 170.797 33.9137 170.546 34.2002 170.045C34.501 169.529 34.6514 168.752 34.6514 167.714C34.6514 167.571 34.7373 167.467 34.9092 167.402C35.0811 167.331 35.278 167.299 35.5 167.306C35.7292 167.313 35.9297 167.352 36.1016 167.424C36.2734 167.495 36.3594 167.603 36.3594 167.746C36.3594 169.479 35.9548 170.779 35.1455 171.646C34.4508 172.383 33.5449 172.752 32.4277 172.752ZM38.5078 172.548C37.8704 172.548 37.5016 172.354 37.4014 171.968C37.8955 171.517 38.2464 171.022 38.4541 170.485C38.5902 170.127 38.6797 169.741 38.7227 169.325C38.7656 168.903 38.7764 168.502 38.7549 168.122C38.7334 167.735 38.6976 167.424 38.6475 167.188C38.5544 166.779 38.429 166.461 38.2715 166.231C38.1211 166.002 37.985 165.83 37.8633 165.716C37.7415 165.601 37.6807 165.508 37.6807 165.437C37.6807 165.379 37.7666 165.293 37.9385 165.179C38.1104 165.057 38.2536 164.889 38.3682 164.674C38.626 164.223 38.7549 163.517 38.7549 162.558V159.829C38.7549 158.92 38.7119 158.157 38.626 157.541C38.5472 156.918 38.4147 156.377 38.2285 155.919C38.0423 155.461 37.7845 155.024 37.4551 154.608C37.4551 154.343 37.652 154.154 38.0459 154.039C38.2106 153.996 38.3896 153.975 38.583 153.975C39.3206 153.975 39.9473 154.351 40.4629 155.103C40.6992 154.63 41.0143 154.297 41.4082 154.104C41.7018 153.946 42.0098 153.921 42.332 154.028C42.6615 154.136 42.8512 154.275 42.9014 154.447L42.9443 154.608C42.4788 155.876 42.1852 157.394 42.0635 159.163C42.9085 158.34 43.9111 157.928 45.0713 157.928C45.9808 157.928 46.7399 158.286 47.3486 159.002C47.9645 159.711 48.2725 160.753 48.2725 162.128C48.2725 163.546 48.5947 164.595 49.2393 165.275C49.3324 165.376 49.3538 165.454 49.3037 165.512C49.2607 165.562 49.182 165.641 49.0674 165.748C48.9528 165.848 48.8346 166.027 48.7129 166.285C48.4837 166.758 48.3691 167.445 48.3691 168.348C48.3691 169.257 48.4658 169.973 48.6592 170.496C48.8525 171.012 49.2035 171.502 49.7119 171.968C49.5186 172.354 49.096 172.548 48.4443 172.548C47.7926 172.548 47.1696 172.165 46.5752 171.398C46.0023 172.165 45.4186 172.548 44.8242 172.548C44.237 172.548 43.8932 172.354 43.793 171.968C44.2799 171.502 44.6273 170.99 44.835 170.432C44.9782 170.045 45.0677 169.633 45.1035 169.196C45.1465 168.759 45.1572 168.348 45.1357 167.961C45.1143 167.567 45.0785 167.256 45.0283 167.026C44.9639 166.711 44.8564 166.45 44.7061 166.242C44.5557 166.027 44.4124 165.855 44.2764 165.727C44.1475 165.59 44.083 165.487 44.083 165.415C44.083 165.379 44.1546 165.304 44.2979 165.189C44.4411 165.075 44.57 164.896 44.6846 164.652C44.7992 164.438 44.8815 164.14 44.9316 163.761C44.9889 163.381 45.0176 162.973 45.0176 162.536C45.0247 162.099 45.0033 161.688 44.9531 161.301C44.903 160.907 44.8314 160.592 44.7383 160.355C44.5592 159.904 44.2441 159.679 43.793 159.679C42.9694 159.679 42.4251 160.23 42.1602 161.333C42.0671 161.705 42.0205 162.185 42.0205 162.772C42.0205 163.281 42.0635 163.736 42.1494 164.137C42.2425 164.531 42.3535 164.799 42.4824 164.942C42.5898 165.057 42.6937 165.157 42.7939 165.243C42.8942 165.329 42.9443 165.39 42.9443 165.426C42.9443 165.454 42.8799 165.537 42.751 165.673C42.6221 165.809 42.4932 166.02 42.3643 166.307C42.1423 166.758 42.0312 167.438 42.0312 168.348C42.0312 169.257 42.1279 169.973 42.3213 170.496C42.5146 171.012 42.8656 171.502 43.374 171.968C43.3239 172.111 43.1986 172.243 42.998 172.365C42.8047 172.487 42.5863 172.548 42.3428 172.548C41.6338 172.548 40.9606 172.165 40.3232 171.398C39.7503 172.165 39.1452 172.548 38.5078 172.548ZM53.5469 153.158L55.8027 155.135L53.5361 157.176L52.9668 156.682C52.7806 156.517 52.5908 156.356 52.3975 156.198C52.2113 156.034 52.0251 155.869 51.8389 155.704L51.2695 155.21C51.2695 155.188 51.377 155.074 51.5918 154.866C51.8138 154.651 52.068 154.415 52.3545 154.157C52.6481 153.892 52.9131 153.66 53.1494 153.459C53.3857 153.258 53.5182 153.158 53.5469 153.158ZM51.957 157.928C52.5801 157.928 53.1172 158.203 53.5684 158.755C53.7975 158.418 54.152 158.171 54.6318 158.014C54.818 157.956 55.0078 157.928 55.2012 157.928C55.5521 157.928 55.8063 157.996 55.9639 158.132C56.1071 158.254 56.1895 158.379 56.2109 158.508C55.7526 158.959 55.4447 159.417 55.2871 159.883C55.2155 160.09 55.151 160.388 55.0938 160.774C55.0436 161.154 55.0186 161.576 55.0186 162.042C55.0186 162.293 55.0257 162.55 55.04 162.815C55.0615 163.08 55.0938 163.345 55.1367 163.61C55.2155 164.069 55.3301 164.405 55.4805 164.62C55.6309 164.828 55.7705 164.982 55.8994 165.082C56.0283 165.175 56.0928 165.286 56.0928 165.415C56.0928 165.472 56.057 165.526 55.9854 165.576C55.9137 165.626 55.8242 165.712 55.7168 165.834C55.6165 165.949 55.5127 166.103 55.4053 166.296C55.1546 166.754 55.0293 167.467 55.0293 168.434C55.0293 169.078 55.0651 169.615 55.1367 170.045C55.2083 170.467 55.3301 170.826 55.502 171.119C55.681 171.413 55.9173 171.696 56.2109 171.968C56.2109 172.19 56.0283 172.362 55.6631 172.483C55.527 172.526 55.3372 172.548 55.0938 172.548C54.8503 172.548 54.5924 172.476 54.3203 172.333C54.0553 172.197 53.8656 172.061 53.751 171.925L53.5684 171.721C53.3464 172.043 52.9919 172.286 52.5049 172.451C52.3258 172.516 52.1396 172.548 51.9463 172.548C51.71 172.548 51.4951 172.505 51.3018 172.419C51.1156 172.34 51.0046 172.236 50.9688 172.107L50.9258 171.968C51.3698 171.567 51.6777 171.119 51.8496 170.625C51.9499 170.353 52.0179 170.045 52.0537 169.701C52.0967 169.35 52.1182 168.999 52.1182 168.648C52.1182 168.376 52.1074 168.115 52.0859 167.864C52.0645 167.606 52.0358 167.381 52 167.188C51.9284 166.786 51.8138 166.479 51.6562 166.264C51.5059 166.042 51.3662 165.87 51.2373 165.748C51.1084 165.626 51.0439 165.515 51.0439 165.415C51.0439 165.336 51.1227 165.247 51.2803 165.146C51.445 165.039 51.5954 164.853 51.7314 164.588C51.9821 164.108 52.1074 163.327 52.1074 162.246C52.1074 161.516 52.0716 160.932 52 160.495C51.9284 160.058 51.8066 159.693 51.6348 159.399C51.4629 159.099 51.2266 158.801 50.9258 158.508C50.9258 158.279 51.1084 158.107 51.4736 157.992C51.6169 157.949 51.778 157.928 51.957 157.928ZM61.6357 172.548C60.9411 172.548 60.4076 172.308 60.0352 171.828C59.8275 172.129 59.4873 172.344 59.0146 172.473C58.721 172.551 58.4453 172.573 58.1875 172.537C57.9368 172.501 57.7542 172.437 57.6396 172.344C57.5036 172.229 57.4248 172.104 57.4033 171.968C57.9118 171.688 58.2269 171.37 58.3486 171.012C58.4561 170.689 58.5241 170.285 58.5527 169.798C58.5885 169.304 58.5957 168.817 58.5742 168.337C58.5599 167.85 58.5241 167.46 58.4668 167.166C58.3952 166.765 58.2806 166.461 58.123 166.253C57.9727 166.038 57.833 165.87 57.7041 165.748C57.5752 165.626 57.5107 165.508 57.5107 165.394C57.5107 165.322 57.5465 165.247 57.6182 165.168C57.6898 165.089 57.7793 164.967 57.8867 164.803C57.9941 164.638 58.098 164.402 58.1982 164.094C58.4489 163.363 58.5742 162.164 58.5742 160.495C58.5742 159.378 58.5384 158.461 58.4668 157.745C58.3952 157.029 58.2734 156.427 58.1016 155.94C57.9297 155.446 57.6934 154.984 57.3926 154.555C57.3926 154.326 57.5752 154.154 57.9404 154.039C58.0837 153.996 58.2448 153.975 58.4238 153.975C59.1615 153.975 59.7021 154.25 60.0459 154.802C60.2751 154.465 60.626 154.218 61.0986 154.061C61.3278 153.982 61.5749 153.957 61.8398 153.985C62.112 154.007 62.3089 154.071 62.4307 154.179C62.5739 154.3 62.6562 154.426 62.6777 154.555C62.2337 155.206 61.9258 155.937 61.7539 156.746C61.6751 157.133 61.6071 157.648 61.5498 158.293C61.4997 158.93 61.4746 159.625 61.4746 160.377C61.4818 161.129 61.5247 161.874 61.6035 162.611C61.6751 163.292 61.7861 163.804 61.9365 164.147C62.0941 164.484 62.2373 164.735 62.3662 164.899C62.4951 165.064 62.5596 165.229 62.5596 165.394C62.5596 165.465 62.5238 165.526 62.4521 165.576C62.3805 165.626 62.291 165.712 62.1836 165.834C62.0833 165.949 61.9795 166.103 61.8721 166.296C61.6214 166.754 61.4961 167.506 61.4961 168.552C61.4961 169.712 61.5212 170.367 61.5713 170.518C61.6143 170.682 61.6608 170.847 61.7109 171.012C61.7682 171.169 61.8398 171.291 61.9258 171.377C62.1621 171.628 62.4092 171.825 62.667 171.968C62.667 172.19 62.488 172.362 62.1299 172.483C61.9938 172.526 61.8291 172.548 61.6357 172.548ZM66.7168 172.473C66.416 172.358 66.1475 172.204 65.9111 172.011C65.682 171.825 65.4707 171.567 65.2773 171.237C65.0768 170.894 64.9408 170.514 64.8691 170.099C64.7975 169.683 64.5576 169.229 64.1494 168.734C64.0205 168.584 63.9561 168.491 63.9561 168.455C63.9561 168.405 64.0169 168.323 64.1387 168.208C64.2604 168.086 64.3893 167.932 64.5254 167.746C64.6686 167.56 64.7653 167.338 64.8154 167.08C65.016 166.12 65.4886 165.44 66.2334 165.039C66.5628 164.853 66.9102 164.702 67.2754 164.588C67.6621 164.466 68.0202 164.359 68.3496 164.266C68.6862 164.165 69.0049 164.04 69.3057 163.89C69.5921 163.754 69.8213 163.549 69.9932 163.277C70.1794 162.998 70.2689 162.601 70.2617 162.085C70.2546 161.562 70.2331 161.086 70.1973 160.656C70.1686 160.277 70.0791 159.947 69.9287 159.668C69.7783 159.389 69.4919 159.249 69.0693 159.249C68.7829 159.249 68.543 159.353 68.3496 159.561C68.1634 159.768 68.0703 160.03 68.0703 160.345C68.0703 160.552 68.1169 160.799 68.21 161.086C68.3102 161.365 68.4535 161.623 68.6396 161.859C68.8258 162.089 69.0443 162.235 69.2949 162.3C69.1016 162.758 68.7829 162.987 68.3389 162.987C67.8877 162.987 67.4723 162.84 67.0928 162.547C67.1286 162.583 67.0498 162.758 66.8564 163.073C66.7347 163.281 66.5557 163.478 66.3193 163.664C66.0902 163.85 65.8574 163.972 65.6211 164.029C65.3848 164.087 65.195 164.029 65.0518 163.857C65.4242 163.485 65.6104 163.134 65.6104 162.805C65.6104 162.697 65.5602 162.436 65.46 162.021C65.3597 161.605 65.3096 161.312 65.3096 161.14C65.3096 160.266 65.6426 159.561 66.3086 159.023C66.6022 158.78 67.0104 158.533 67.5332 158.282C68.056 158.032 68.6576 157.906 69.3379 157.906C72.1953 157.906 73.624 159.467 73.624 162.59C73.624 163.356 73.7673 164.029 74.0537 164.609C74.1969 164.889 74.4977 165.161 74.9561 165.426C74.9561 165.454 74.9167 165.497 74.8379 165.555C74.752 165.612 74.6481 165.705 74.5264 165.834C74.4046 165.956 74.2829 166.113 74.1611 166.307C74.0251 166.529 73.9176 166.833 73.8389 167.22C73.7673 167.606 73.7314 168.118 73.7314 168.756C73.7314 170.138 74.0967 171.216 74.8271 171.989C74.7627 172.104 74.6266 172.222 74.4189 172.344C74.2614 172.423 74.0072 172.483 73.6562 172.526C73.3053 172.576 72.9652 172.519 72.6357 172.354C72.0342 172.061 71.5544 171.56 71.1963 170.851C70.9886 171.574 70.5983 172.079 70.0254 172.365C69.5527 172.602 69.0264 172.73 68.4463 172.752C67.8662 172.781 67.2897 172.688 66.7168 172.473ZM68.9189 171.044C69.2126 171.044 69.4274 170.99 69.5635 170.883C69.6494 170.826 69.7246 170.768 69.7891 170.711C69.8535 170.654 69.9108 170.564 69.9609 170.442L70.1436 169.98C70.2223 169.787 70.2617 169.182 70.2617 168.165V164.663C70.1686 164.756 70.0469 164.867 69.8965 164.996C69.7533 165.118 69.5778 165.257 69.3701 165.415C68.9691 165.723 68.6432 166.035 68.3926 166.35C68.0632 166.765 67.8984 167.445 67.8984 168.391V168.627C67.8984 170.238 68.2386 171.044 68.9189 171.044ZM81.1865 172.752C80.1123 172.752 79.1598 172.365 78.3291 171.592C77.9281 171.219 77.6058 170.75 77.3623 170.185C77.1188 169.612 76.9971 169.064 76.9971 168.541C76.9971 168.018 76.9756 167.606 76.9326 167.306C76.8896 166.998 76.8395 166.754 76.7822 166.575C76.7321 166.425 76.6318 166.257 76.4814 166.07C76.3311 165.884 76.195 165.727 76.0732 165.598C75.9515 165.469 75.9014 165.415 75.9229 165.437C75.9229 165.401 76.0016 165.322 76.1592 165.2C76.3167 165.071 76.4671 164.871 76.6104 164.599C76.8682 164.133 76.9971 163.417 76.9971 162.45C76.9971 161.011 77.3301 159.897 77.9961 159.109C78.6693 158.314 79.5286 157.917 80.5742 157.917C81.6198 157.917 82.4255 158.297 82.9912 159.056C82.8551 157.366 82.4541 155.883 81.7881 154.608C81.7881 154.358 81.9886 154.168 82.3896 154.039C82.54 153.996 82.7191 153.975 82.9268 153.975C83.6286 153.975 84.2194 154.351 84.6992 155.103C84.735 155.031 84.821 154.916 84.957 154.759C85.1003 154.594 85.2363 154.462 85.3652 154.361C85.7233 154.104 86.0778 153.975 86.4287 153.975C86.7438 153.975 87.0016 154.025 87.2021 154.125C87.4098 154.225 87.528 154.333 87.5566 154.447L87.5996 154.608C87.2773 155.024 87.0195 155.457 86.8262 155.908C86.64 156.352 86.5039 156.879 86.418 157.487C86.3392 158.089 86.2998 158.834 86.2998 159.722V162.45C86.2998 163.918 86.6579 164.871 87.374 165.308C87.4958 165.372 87.528 165.429 87.4707 165.479C87.4206 165.53 87.3239 165.605 87.1807 165.705C87.0446 165.805 86.9014 165.97 86.751 166.199C86.486 166.615 86.3356 167.259 86.2998 168.133C86.307 169.1 86.4036 169.855 86.5898 170.399C86.7832 170.944 87.1198 171.445 87.5996 171.903C87.5996 172.161 87.3991 172.351 86.998 172.473C86.8548 172.523 86.6794 172.548 86.4717 172.548C85.6553 172.548 84.8962 172.118 84.1943 171.259C83.4782 172.254 82.4756 172.752 81.1865 172.752ZM82.0244 171.227C82.1318 171.212 82.2285 171.184 82.3145 171.141C82.4076 171.09 82.4863 171.044 82.5508 171.001C82.6224 170.958 82.6797 170.886 82.7227 170.786C82.7656 170.686 82.8086 170.596 82.8516 170.518C82.8874 170.46 82.9124 170.374 82.9268 170.26C82.9411 170.145 82.9626 169.998 82.9912 169.819C83.0127 169.604 83.0234 169.289 83.0234 168.874V168.176C83.0234 167.388 82.9482 166.829 82.7979 166.5C82.7191 166.335 82.6475 166.199 82.583 166.092C82.5257 165.977 82.4756 165.891 82.4326 165.834C82.361 165.727 82.2894 165.641 82.2178 165.576C82.1462 165.505 82.1104 165.451 82.1104 165.415C82.1104 165.379 82.1605 165.318 82.2607 165.232C82.361 165.139 82.4648 165.025 82.5723 164.889C82.7012 164.731 82.8086 164.43 82.8945 163.986C82.9876 163.542 83.0342 163.03 83.0342 162.45C83.0342 160.588 82.5723 159.657 81.6484 159.657C80.7174 159.657 80.252 160.588 80.252 162.45C80.252 163.882 80.5312 164.831 81.0898 165.297C81.2116 165.397 81.1901 165.505 81.0254 165.619C80.8607 165.734 80.6995 165.963 80.542 166.307C80.4131 166.586 80.3271 166.908 80.2842 167.273C80.2484 167.632 80.234 167.972 80.2412 168.294C80.2555 168.609 80.2627 168.845 80.2627 169.003L80.2949 169.658C80.3021 169.794 80.3128 169.912 80.3271 170.013C80.3415 170.106 80.3558 170.181 80.3701 170.238C80.4059 170.367 80.4561 170.51 80.5205 170.668C80.585 170.826 80.6673 170.94 80.7676 171.012C81.0182 171.176 81.2581 171.259 81.4873 171.259C81.7236 171.259 81.9027 171.248 82.0244 171.227ZM91.6602 172.473C91.3594 172.358 91.0908 172.204 90.8545 172.011C90.6253 171.825 90.4141 171.567 90.2207 171.237C90.0202 170.894 89.8841 170.514 89.8125 170.099C89.7409 169.683 89.501 169.229 89.0928 168.734C88.9639 168.584 88.8994 168.491 88.8994 168.455C88.8994 168.405 88.9603 168.323 89.082 168.208C89.2038 168.086 89.3327 167.932 89.4688 167.746C89.612 167.56 89.7087 167.338 89.7588 167.08C89.9593 166.12 90.432 165.44 91.1768 165.039C91.5062 164.853 91.8535 164.702 92.2188 164.588C92.6055 164.466 92.9635 164.359 93.293 164.266C93.6296 164.165 93.9482 164.04 94.249 163.89C94.5355 163.754 94.7646 163.549 94.9365 163.277C95.1227 162.998 95.2122 162.601 95.2051 162.085C95.1979 161.562 95.1764 161.086 95.1406 160.656C95.112 160.277 95.0225 159.947 94.8721 159.668C94.7217 159.389 94.4352 159.249 94.0127 159.249C93.7262 159.249 93.4863 159.353 93.293 159.561C93.1068 159.768 93.0137 160.03 93.0137 160.345C93.0137 160.552 93.0602 160.799 93.1533 161.086C93.2536 161.365 93.3968 161.623 93.583 161.859C93.7692 162.089 93.9876 162.235 94.2383 162.3C94.0449 162.758 93.7262 162.987 93.2822 162.987C92.8311 162.987 92.4157 162.84 92.0361 162.547C92.0719 162.583 91.9932 162.758 91.7998 163.073C91.6781 163.281 91.499 163.478 91.2627 163.664C91.0335 163.85 90.8008 163.972 90.5645 164.029C90.3281 164.087 90.1383 164.029 89.9951 163.857C90.3675 163.485 90.5537 163.134 90.5537 162.805C90.5537 162.697 90.5036 162.436 90.4033 162.021C90.3031 161.605 90.2529 161.312 90.2529 161.14C90.2529 160.266 90.5859 159.561 91.252 159.023C91.5456 158.78 91.9538 158.533 92.4766 158.282C92.9993 158.032 93.6009 157.906 94.2812 157.906C97.1387 157.906 98.5674 159.467 98.5674 162.59C98.5674 163.356 98.7106 164.029 98.9971 164.609C99.1403 164.889 99.4411 165.161 99.8994 165.426C99.8994 165.454 99.86 165.497 99.7812 165.555C99.6953 165.612 99.5915 165.705 99.4697 165.834C99.348 165.956 99.2262 166.113 99.1045 166.307C98.9684 166.529 98.861 166.833 98.7822 167.22C98.7106 167.606 98.6748 168.118 98.6748 168.756C98.6748 170.138 99.04 171.216 99.7705 171.989C99.7061 172.104 99.57 172.222 99.3623 172.344C99.2048 172.423 98.9505 172.483 98.5996 172.526C98.2487 172.576 97.9085 172.519 97.5791 172.354C96.9775 172.061 96.4977 171.56 96.1396 170.851C95.932 171.574 95.5417 172.079 94.9688 172.365C94.4961 172.602 93.9697 172.73 93.3896 172.752C92.8096 172.781 92.2331 172.688 91.6602 172.473ZM93.8623 171.044C94.1559 171.044 94.3708 170.99 94.5068 170.883C94.5928 170.826 94.668 170.768 94.7324 170.711C94.7969 170.654 94.8542 170.564 94.9043 170.442L95.0869 169.98C95.1657 169.787 95.2051 169.182 95.2051 168.165V164.663C95.112 164.756 94.9902 164.867 94.8398 164.996C94.6966 165.118 94.5212 165.257 94.3135 165.415C93.9124 165.723 93.5866 166.035 93.3359 166.35C93.0065 166.765 92.8418 167.445 92.8418 168.391V168.627C92.8418 170.238 93.182 171.044 93.8623 171.044ZM106.033 174.224C105.747 174.152 105.604 173.898 105.604 173.461C105.604 173.031 105.808 172.641 106.216 172.29C106.058 172.161 105.915 171.975 105.786 171.731C105.664 171.488 105.604 171.277 105.604 171.098C105.604 170.911 105.618 170.768 105.646 170.668C105.675 170.568 105.711 170.493 105.754 170.442C105.818 170.356 105.911 170.296 106.033 170.26C106.434 170.754 106.989 171.001 107.698 171.001C107.999 171.001 108.217 170.937 108.354 170.808C108.497 170.686 108.59 170.571 108.633 170.464C108.676 170.356 108.712 170.26 108.74 170.174C108.769 170.095 108.794 169.977 108.815 169.819C108.837 169.662 108.851 169.526 108.858 169.411C108.873 169.304 108.88 169.146 108.88 168.938C108.887 168.731 108.891 168.559 108.891 168.423V167.843C108.891 165.888 108.543 164.617 107.849 164.029C107.698 163.886 107.698 163.75 107.849 163.621C107.927 163.557 108.024 163.46 108.139 163.331C108.253 163.195 108.368 163.005 108.482 162.762C108.755 162.182 108.891 161.286 108.891 160.076C108.891 159.26 108.848 158.597 108.762 158.089C108.683 157.573 108.547 157.144 108.354 156.8C108.167 156.456 107.913 156.141 107.591 155.854C107.591 155.604 107.791 155.414 108.192 155.285C108.343 155.242 108.518 155.221 108.719 155.221C109.406 155.221 109.99 155.597 110.47 156.349C110.506 156.277 110.591 156.162 110.728 156.005C110.871 155.84 111.007 155.708 111.136 155.607C111.494 155.35 111.82 155.221 112.113 155.221C112.636 155.221 112.976 155.296 113.134 155.446C113.291 155.582 113.381 155.718 113.402 155.854C112.908 156.291 112.572 156.796 112.393 157.369C112.264 157.763 112.178 158.221 112.135 158.744C112.092 159.26 112.081 159.775 112.103 160.291C112.131 160.799 112.171 161.236 112.221 161.602C112.307 162.153 112.432 162.565 112.597 162.837C112.761 163.102 112.912 163.302 113.048 163.438C113.184 163.567 113.252 163.707 113.252 163.857C113.252 163.929 113.213 163.997 113.134 164.062C113.055 164.133 112.958 164.241 112.844 164.384C112.736 164.527 112.625 164.72 112.511 164.964C112.239 165.551 112.103 166.514 112.103 167.854C112.103 169.887 111.784 171.348 111.146 172.236C110.516 173.132 109.478 173.579 108.031 173.579C107.401 173.579 106.735 173.794 106.033 174.224ZM119.289 172.999C117.971 172.999 116.836 172.648 115.884 171.946C115.425 171.603 115.057 171.159 114.777 170.614C114.505 170.063 114.369 169.54 114.369 169.046C114.369 168.638 114.416 168.28 114.509 167.972C114.609 167.657 114.706 167.363 114.799 167.091C114.892 166.812 114.938 166.525 114.938 166.231C114.938 165.938 114.817 165.626 114.573 165.297C114.666 165.225 114.799 165.189 114.971 165.189C115.271 165.189 115.547 165.293 115.798 165.501C116.056 165.709 116.263 165.966 116.421 166.274C116.586 166.582 116.668 166.89 116.668 167.198C117.241 166.89 117.749 166.765 118.193 166.822C118.645 166.88 118.931 167.001 119.053 167.188C119.174 167.367 119.235 167.524 119.235 167.66V167.746C118.82 167.796 118.455 167.972 118.14 168.272C117.832 168.566 117.678 168.942 117.678 169.4C117.678 169.859 117.825 170.199 118.118 170.421C118.412 170.643 118.784 170.754 119.235 170.754C119.679 170.754 120.102 170.578 120.503 170.228C120.904 169.869 121.104 169.368 121.104 168.724C121.104 167.785 120.872 167.016 120.406 166.414C119.941 165.805 119.321 165.501 118.548 165.501C118.34 165.501 118.107 165.533 117.85 165.598C117.592 165.662 117.445 165.694 117.409 165.694L117.323 165.673C117.252 165.644 117.187 165.54 117.13 165.361C116.972 164.803 116.679 164.355 116.249 164.019C114.874 162.909 114.187 161.433 114.187 159.593C114.187 158.11 114.67 156.968 115.637 156.166C116.611 155.364 117.957 154.963 119.676 154.963C120.428 154.963 121.087 155.106 121.652 155.393C122.225 155.679 122.666 155.958 122.974 156.23C123.668 156.854 124.016 157.663 124.016 158.658C124.016 158.988 123.93 159.428 123.758 159.979C123.586 160.524 123.5 160.857 123.5 160.979C123.5 161.401 123.679 161.813 124.037 162.214C123.908 162.171 123.726 162.149 123.489 162.149C123.253 162.149 123.027 162.089 122.812 161.967C122.605 161.845 122.44 161.695 122.318 161.516C122.089 161.193 121.914 160.81 121.792 160.366C121.742 160.445 121.559 160.527 121.244 160.613C120.929 160.692 120.664 160.731 120.449 160.731C119.826 160.731 119.457 160.549 119.343 160.184C119.293 160.076 119.268 159.969 119.268 159.861C119.712 159.84 120.098 159.725 120.428 159.518C120.764 159.303 120.933 158.966 120.933 158.508C120.933 158.042 120.793 157.684 120.514 157.434C120.242 157.176 119.934 157.047 119.59 157.047C118.465 157.047 117.903 157.72 117.903 159.066C117.903 160.205 118.193 161.054 118.773 161.612C119.06 161.884 119.354 162.028 119.654 162.042C119.962 162.056 120.306 162.01 120.686 161.902C121.015 161.809 121.215 161.763 121.287 161.763C121.337 161.763 121.395 161.856 121.459 162.042C121.688 162.679 121.964 163.109 122.286 163.331C123.067 163.847 123.686 164.509 124.145 165.318C124.603 166.128 124.832 166.991 124.832 167.907C124.832 168.824 124.671 169.601 124.349 170.238C124.026 170.876 123.6 171.391 123.07 171.785C121.982 172.594 120.721 172.999 119.289 172.999Z" fill="#8C2F04"/>
<path d="M2.5752 171.537C2.2959 171.537 2.06315 171.483 1.87695 171.376C1.69076 171.269 1.58333 171.161 1.55469 171.054L1.51172 170.893C1.86263 170.685 2.09538 170.492 2.20996 170.312C2.33171 170.141 2.42122 170.008 2.47852 169.915C2.54297 169.815 2.59668 169.664 2.63965 169.464L2.73633 168.97C2.75781 168.848 2.77214 168.64 2.7793 168.347C2.79362 168.046 2.80078 167.802 2.80078 167.616V166.714C2.80078 164.888 2.44987 163.667 1.74805 163.051C1.59766 162.929 1.59766 162.797 1.74805 162.653C1.82682 162.582 1.9235 162.478 2.03809 162.342C2.15983 162.206 2.27799 162.016 2.39258 161.772C2.66471 161.185 2.80078 160.276 2.80078 159.044C2.80078 158.22 2.75781 157.558 2.67188 157.057C2.5931 156.555 2.46061 156.14 2.27441 155.811C2.08822 155.481 1.8304 155.162 1.50098 154.854C1.50098 154.597 1.7015 154.407 2.10254 154.285C2.25293 154.242 2.47135 154.221 2.75781 154.221C3.04427 154.221 3.35221 154.325 3.68164 154.532C4.01823 154.74 4.26172 154.944 4.41211 155.145L4.6377 155.456C5.31087 154.632 6.06999 154.221 6.91504 154.221C7.36621 154.221 7.83171 154.31 8.31152 154.489C8.7985 154.661 9.18164 154.915 9.46094 155.252C9.97656 154.564 10.5853 154.221 11.2871 154.221C11.7669 154.221 12.0498 154.385 12.1357 154.715C11.7777 154.987 11.5234 155.295 11.373 155.639C11.2298 155.982 11.1582 156.405 11.1582 156.906C11.1582 157.787 11.4482 158.45 12.0283 158.894C11.9782 159.094 11.8278 159.223 11.5771 159.28C11.3265 159.33 11.0508 159.32 10.75 159.248C10.4564 159.169 10.2129 159.04 10.0195 158.861L9.8584 158.7C9.4502 159.108 8.98112 159.312 8.45117 159.312C8.02865 159.312 7.77441 159.173 7.68848 158.894C8.19694 158.428 8.45117 157.891 8.45117 157.282C8.45117 156.602 8.06445 156.262 7.29102 156.262C6.51758 156.262 6.13086 156.509 6.13086 157.003V157.1L6.59277 161.901C7.38053 161.901 8 161.858 8.45117 161.772C8.90951 161.679 9.31055 161.515 9.6543 161.278C9.72591 161.278 9.79036 161.332 9.84766 161.439C9.91211 161.54 9.94434 161.665 9.94434 161.815C9.94434 162.202 9.69368 162.546 9.19238 162.847C9.32845 162.89 9.46094 162.986 9.58984 163.137C9.82617 163.402 9.94434 163.634 9.94434 163.835C9.94434 164.186 9.87272 164.383 9.72949 164.426L9.6543 164.447C9.0026 164.025 7.9821 163.813 6.59277 163.813L6.12012 168.529C6.12012 169.009 6.26335 169.306 6.5498 169.421C6.76465 169.514 7.04753 169.561 7.39844 169.561C7.73503 169.561 7.99642 169.432 8.18262 169.174C8.36882 168.909 8.46191 168.583 8.46191 168.196C8.46191 167.559 8.20768 166.993 7.69922 166.499C7.77083 166.213 7.9821 166.069 8.33301 166.069C8.94173 166.069 9.40007 166.223 9.70801 166.531L9.86914 166.692C10.2845 166.277 10.7572 166.069 11.2871 166.069C11.7025 166.069 11.9531 166.213 12.0391 166.499C11.459 166.957 11.1689 167.695 11.1689 168.712C11.1689 169.736 11.4948 170.52 12.1465 171.064C12.1465 171.243 11.9961 171.383 11.6953 171.483C11.5664 171.519 11.4339 171.537 11.2979 171.537C10.5889 171.537 9.98014 171.197 9.47168 170.517C9.18522 170.853 8.80566 171.107 8.33301 171.279C7.889 171.437 7.4987 171.519 7.16211 171.526C6.83268 171.534 6.56413 171.512 6.35645 171.462C6.06999 171.39 5.81934 171.286 5.60449 171.15C5.38965 171.021 5.22135 170.9 5.09961 170.785C4.91341 170.613 4.7666 170.456 4.65918 170.312C4.37272 170.799 3.92871 171.165 3.32715 171.408C3.10514 171.494 2.85449 171.537 2.5752 171.537ZM14.2949 171.548C14.0085 171.548 13.7721 171.505 13.5859 171.419C13.3424 171.297 13.1921 171.147 13.1348 170.968C13.6289 170.517 13.9798 170.022 14.1875 169.485C14.3236 169.134 14.4095 168.748 14.4453 168.325C14.4883 167.896 14.5026 167.487 14.4883 167.101C14.474 166.707 14.4489 166.388 14.4131 166.145C14.363 165.808 14.2842 165.543 14.1768 165.35C14.0765 165.149 13.987 164.995 13.9082 164.888C13.8151 164.766 13.7399 164.694 13.6826 164.673C13.6325 164.651 13.543 164.576 13.4141 164.447C13.4141 164.419 13.4893 164.347 13.6396 164.232C13.79 164.118 13.9476 163.917 14.1123 163.631C14.363 163.187 14.4883 162.496 14.4883 161.558C14.4883 160.619 14.3809 159.871 14.166 159.312C13.9512 158.754 13.5645 158.22 13.0059 157.712C13.1849 157.34 13.6826 157.153 14.499 157.153C15.3011 157.153 16.0137 157.69 16.6367 158.765C17.7897 157.526 18.9714 156.906 20.1816 156.906C21.3418 156.906 22.2835 157.3 23.0068 158.088C23.7373 158.868 24.1025 159.971 24.1025 161.396C24.1025 162.012 24.1491 162.557 24.2422 163.029C24.3353 163.495 24.4427 163.81 24.5645 163.975C24.6719 164.111 24.7757 164.229 24.876 164.329C24.9762 164.429 25.0264 164.497 25.0264 164.533C25.0264 164.569 24.9619 164.644 24.833 164.759C24.7041 164.866 24.568 165.056 24.4248 165.328C24.21 165.765 24.1025 166.438 24.1025 167.348C24.1025 168.257 24.1992 168.973 24.3926 169.496C24.5859 170.012 24.9368 170.502 25.4453 170.968C25.252 171.354 24.8294 171.548 24.1777 171.548C23.526 171.548 22.903 171.165 22.3086 170.398C21.7357 171.165 21.1842 171.548 20.6543 171.548C20.1172 171.548 19.7985 171.354 19.6982 170.968C20.2497 170.345 20.6113 169.593 20.7832 168.712C20.9551 167.831 20.9479 166.939 20.7617 166.037C20.6973 165.722 20.5898 165.461 20.4395 165.253C20.2891 165.038 20.1458 164.866 20.0098 164.737C19.8809 164.601 19.8164 164.497 19.8164 164.426C19.8164 164.404 19.8737 164.329 19.9883 164.2C20.11 164.064 20.2282 163.917 20.3428 163.76C20.4717 163.588 20.5898 163.291 20.6973 162.868C20.8118 162.446 20.8691 161.955 20.8691 161.396C20.8691 159.577 20.4466 158.668 19.6016 158.668C19.0645 158.668 18.6204 158.911 18.2695 159.398C17.9186 159.885 17.7432 160.616 17.7432 161.59C17.7432 162.148 17.7933 162.628 17.8936 163.029C17.9938 163.43 18.1012 163.706 18.2158 163.856C18.3161 164 18.4163 164.125 18.5166 164.232C18.624 164.333 18.6777 164.401 18.6777 164.437C18.6777 164.465 18.6097 164.548 18.4736 164.684C18.3447 164.82 18.2158 165.027 18.0869 165.307C17.8721 165.786 17.7646 166.474 17.7646 167.369C17.7646 168.271 17.8613 168.98 18.0547 169.496C18.248 170.012 18.599 170.502 19.1074 170.968C19.0573 171.111 18.932 171.243 18.7314 171.365C18.5381 171.487 18.3197 171.548 18.0762 171.548C17.3672 171.548 16.694 171.165 16.0566 170.398C15.4837 171.165 14.8965 171.548 14.2949 171.548ZM32.4277 171.752C29.5775 171.752 27.959 170.244 27.5723 167.229C27.4505 166.284 27.3109 165.668 27.1533 165.382C26.9886 165.103 26.8597 164.906 26.7666 164.791C26.695 164.705 26.627 164.633 26.5625 164.576C26.498 164.519 26.4658 164.472 26.4658 164.437V164.415C26.4658 164.365 26.5446 164.283 26.7021 164.168C26.8669 164.053 27.0173 163.874 27.1533 163.631C27.404 163.208 27.5293 162.532 27.5293 161.601C27.5651 160.125 27.9912 158.976 28.8076 158.152C29.624 157.329 30.7126 156.917 32.0732 156.917C32.9255 156.917 33.7992 157.182 34.6943 157.712C35.1312 157.97 35.4893 158.328 35.7686 158.786C36.055 159.237 36.1982 159.674 36.1982 160.097C36.1982 160.634 36.1481 161.092 36.0479 161.472C35.9476 161.851 35.8975 162.216 35.8975 162.567C35.8975 162.818 36.0085 163.112 36.2305 163.448C36.166 163.62 35.9941 163.706 35.7148 163.706C35.4355 163.706 35.1527 163.613 34.8662 163.427C34.5798 163.233 34.3649 163.044 34.2217 162.857L34.0068 162.578C33.7204 162.764 33.4303 162.857 33.1367 162.857C32.8431 162.85 32.6247 162.825 32.4814 162.782C32.3311 162.746 32.2165 162.7 32.1377 162.643C32.0589 162.585 31.9945 162.521 31.9443 162.449C31.8656 162.349 31.8262 162.259 31.8262 162.181L31.8369 162.127C32.0947 162.127 32.3382 162.02 32.5674 161.805C32.7965 161.59 32.9827 161.328 33.126 161.021C33.2692 160.705 33.3408 160.408 33.3408 160.129C33.3408 159.277 32.9255 158.851 32.0947 158.851C31.6507 158.851 31.3643 158.937 31.2354 159.108C31.0993 159.287 31.0026 159.438 30.9453 159.56C30.8952 159.674 30.8558 159.857 30.8271 160.107C30.8128 160.272 30.8021 160.469 30.7949 160.698C30.7878 160.92 30.7842 161.174 30.7842 161.461C30.7842 162.034 30.82 162.503 30.8916 162.868C30.9632 163.226 31.0527 163.491 31.1602 163.663C31.3105 163.899 31.4609 164.075 31.6113 164.189C31.7689 164.297 31.8477 164.376 31.8477 164.426C31.8477 164.469 31.7689 164.544 31.6113 164.651C31.4609 164.752 31.3105 164.916 31.1602 165.146C30.9095 165.539 30.7842 166.184 30.7842 167.079C30.7842 167.981 30.9525 168.662 31.2891 169.12C31.6328 169.571 32.1162 169.797 32.7393 169.797C33.4268 169.797 33.9137 169.546 34.2002 169.045C34.501 168.529 34.6514 167.752 34.6514 166.714C34.6514 166.571 34.7373 166.467 34.9092 166.402C35.0811 166.331 35.278 166.299 35.5 166.306C35.7292 166.313 35.9297 166.352 36.1016 166.424C36.2734 166.495 36.3594 166.603 36.3594 166.746C36.3594 168.479 35.9548 169.779 35.1455 170.646C34.4508 171.383 33.5449 171.752 32.4277 171.752ZM38.5078 171.548C37.8704 171.548 37.5016 171.354 37.4014 170.968C37.8955 170.517 38.2464 170.022 38.4541 169.485C38.5902 169.127 38.6797 168.741 38.7227 168.325C38.7656 167.903 38.7764 167.502 38.7549 167.122C38.7334 166.735 38.6976 166.424 38.6475 166.188C38.5544 165.779 38.429 165.461 38.2715 165.231C38.1211 165.002 37.985 164.83 37.8633 164.716C37.7415 164.601 37.6807 164.508 37.6807 164.437C37.6807 164.379 37.7666 164.293 37.9385 164.179C38.1104 164.057 38.2536 163.889 38.3682 163.674C38.626 163.223 38.7549 162.517 38.7549 161.558V158.829C38.7549 157.92 38.7119 157.157 38.626 156.541C38.5472 155.918 38.4147 155.377 38.2285 154.919C38.0423 154.461 37.7845 154.024 37.4551 153.608C37.4551 153.343 37.652 153.154 38.0459 153.039C38.2106 152.996 38.3896 152.975 38.583 152.975C39.3206 152.975 39.9473 153.351 40.4629 154.103C40.6992 153.63 41.0143 153.297 41.4082 153.104C41.7018 152.946 42.0098 152.921 42.332 153.028C42.6615 153.136 42.8512 153.275 42.9014 153.447L42.9443 153.608C42.4788 154.876 42.1852 156.394 42.0635 158.163C42.9085 157.34 43.9111 156.928 45.0713 156.928C45.9808 156.928 46.7399 157.286 47.3486 158.002C47.9645 158.711 48.2725 159.753 48.2725 161.128C48.2725 162.546 48.5947 163.595 49.2393 164.275C49.3324 164.376 49.3538 164.454 49.3037 164.512C49.2607 164.562 49.182 164.641 49.0674 164.748C48.9528 164.848 48.8346 165.027 48.7129 165.285C48.4837 165.758 48.3691 166.445 48.3691 167.348C48.3691 168.257 48.4658 168.973 48.6592 169.496C48.8525 170.012 49.2035 170.502 49.7119 170.968C49.5186 171.354 49.096 171.548 48.4443 171.548C47.7926 171.548 47.1696 171.165 46.5752 170.398C46.0023 171.165 45.4186 171.548 44.8242 171.548C44.237 171.548 43.8932 171.354 43.793 170.968C44.2799 170.502 44.6273 169.99 44.835 169.432C44.9782 169.045 45.0677 168.633 45.1035 168.196C45.1465 167.759 45.1572 167.348 45.1357 166.961C45.1143 166.567 45.0785 166.256 45.0283 166.026C44.9639 165.711 44.8564 165.45 44.7061 165.242C44.5557 165.027 44.4124 164.855 44.2764 164.727C44.1475 164.59 44.083 164.487 44.083 164.415C44.083 164.379 44.1546 164.304 44.2979 164.189C44.4411 164.075 44.57 163.896 44.6846 163.652C44.7992 163.438 44.8815 163.14 44.9316 162.761C44.9889 162.381 45.0176 161.973 45.0176 161.536C45.0247 161.099 45.0033 160.688 44.9531 160.301C44.903 159.907 44.8314 159.592 44.7383 159.355C44.5592 158.904 44.2441 158.679 43.793 158.679C42.9694 158.679 42.4251 159.23 42.1602 160.333C42.0671 160.705 42.0205 161.185 42.0205 161.772C42.0205 162.281 42.0635 162.736 42.1494 163.137C42.2425 163.531 42.3535 163.799 42.4824 163.942C42.5898 164.057 42.6937 164.157 42.7939 164.243C42.8942 164.329 42.9443 164.39 42.9443 164.426C42.9443 164.454 42.8799 164.537 42.751 164.673C42.6221 164.809 42.4932 165.02 42.3643 165.307C42.1423 165.758 42.0312 166.438 42.0312 167.348C42.0312 168.257 42.1279 168.973 42.3213 169.496C42.5146 170.012 42.8656 170.502 43.374 170.968C43.3239 171.111 43.1986 171.243 42.998 171.365C42.8047 171.487 42.5863 171.548 42.3428 171.548C41.6338 171.548 40.9606 171.165 40.3232 170.398C39.7503 171.165 39.1452 171.548 38.5078 171.548ZM53.5469 152.158L55.8027 154.135L53.5361 156.176L52.9668 155.682C52.7806 155.517 52.5908 155.356 52.3975 155.198C52.2113 155.034 52.0251 154.869 51.8389 154.704L51.2695 154.21C51.2695 154.188 51.377 154.074 51.5918 153.866C51.8138 153.651 52.068 153.415 52.3545 153.157C52.6481 152.892 52.9131 152.66 53.1494 152.459C53.3857 152.258 53.5182 152.158 53.5469 152.158ZM51.957 156.928C52.5801 156.928 53.1172 157.203 53.5684 157.755C53.7975 157.418 54.152 157.171 54.6318 157.014C54.818 156.956 55.0078 156.928 55.2012 156.928C55.5521 156.928 55.8063 156.996 55.9639 157.132C56.1071 157.254 56.1895 157.379 56.2109 157.508C55.7526 157.959 55.4447 158.417 55.2871 158.883C55.2155 159.09 55.151 159.388 55.0938 159.774C55.0436 160.154 55.0186 160.576 55.0186 161.042C55.0186 161.293 55.0257 161.55 55.04 161.815C55.0615 162.08 55.0938 162.345 55.1367 162.61C55.2155 163.069 55.3301 163.405 55.4805 163.62C55.6309 163.828 55.7705 163.982 55.8994 164.082C56.0283 164.175 56.0928 164.286 56.0928 164.415C56.0928 164.472 56.057 164.526 55.9854 164.576C55.9137 164.626 55.8242 164.712 55.7168 164.834C55.6165 164.949 55.5127 165.103 55.4053 165.296C55.1546 165.754 55.0293 166.467 55.0293 167.434C55.0293 168.078 55.0651 168.615 55.1367 169.045C55.2083 169.467 55.3301 169.826 55.502 170.119C55.681 170.413 55.9173 170.696 56.2109 170.968C56.2109 171.19 56.0283 171.362 55.6631 171.483C55.527 171.526 55.3372 171.548 55.0938 171.548C54.8503 171.548 54.5924 171.476 54.3203 171.333C54.0553 171.197 53.8656 171.061 53.751 170.925L53.5684 170.721C53.3464 171.043 52.9919 171.286 52.5049 171.451C52.3258 171.516 52.1396 171.548 51.9463 171.548C51.71 171.548 51.4951 171.505 51.3018 171.419C51.1156 171.34 51.0046 171.236 50.9688 171.107L50.9258 170.968C51.3698 170.567 51.6777 170.119 51.8496 169.625C51.9499 169.353 52.0179 169.045 52.0537 168.701C52.0967 168.35 52.1182 167.999 52.1182 167.648C52.1182 167.376 52.1074 167.115 52.0859 166.864C52.0645 166.606 52.0358 166.381 52 166.188C51.9284 165.786 51.8138 165.479 51.6562 165.264C51.5059 165.042 51.3662 164.87 51.2373 164.748C51.1084 164.626 51.0439 164.515 51.0439 164.415C51.0439 164.336 51.1227 164.247 51.2803 164.146C51.445 164.039 51.5954 163.853 51.7314 163.588C51.9821 163.108 52.1074 162.327 52.1074 161.246C52.1074 160.516 52.0716 159.932 52 159.495C51.9284 159.058 51.8066 158.693 51.6348 158.399C51.4629 158.099 51.2266 157.801 50.9258 157.508C50.9258 157.279 51.1084 157.107 51.4736 156.992C51.6169 156.949 51.778 156.928 51.957 156.928ZM61.6357 171.548C60.9411 171.548 60.4076 171.308 60.0352 170.828C59.8275 171.129 59.4873 171.344 59.0146 171.473C58.721 171.551 58.4453 171.573 58.1875 171.537C57.9368 171.501 57.7542 171.437 57.6396 171.344C57.5036 171.229 57.4248 171.104 57.4033 170.968C57.9118 170.688 58.2269 170.37 58.3486 170.012C58.4561 169.689 58.5241 169.285 58.5527 168.798C58.5885 168.304 58.5957 167.817 58.5742 167.337C58.5599 166.85 58.5241 166.46 58.4668 166.166C58.3952 165.765 58.2806 165.461 58.123 165.253C57.9727 165.038 57.833 164.87 57.7041 164.748C57.5752 164.626 57.5107 164.508 57.5107 164.394C57.5107 164.322 57.5465 164.247 57.6182 164.168C57.6898 164.089 57.7793 163.967 57.8867 163.803C57.9941 163.638 58.098 163.402 58.1982 163.094C58.4489 162.363 58.5742 161.164 58.5742 159.495C58.5742 158.378 58.5384 157.461 58.4668 156.745C58.3952 156.029 58.2734 155.427 58.1016 154.94C57.9297 154.446 57.6934 153.984 57.3926 153.555C57.3926 153.326 57.5752 153.154 57.9404 153.039C58.0837 152.996 58.2448 152.975 58.4238 152.975C59.1615 152.975 59.7021 153.25 60.0459 153.802C60.2751 153.465 60.626 153.218 61.0986 153.061C61.3278 152.982 61.5749 152.957 61.8398 152.985C62.112 153.007 62.3089 153.071 62.4307 153.179C62.5739 153.3 62.6562 153.426 62.6777 153.555C62.2337 154.206 61.9258 154.937 61.7539 155.746C61.6751 156.133 61.6071 156.648 61.5498 157.293C61.4997 157.93 61.4746 158.625 61.4746 159.377C61.4818 160.129 61.5247 160.874 61.6035 161.611C61.6751 162.292 61.7861 162.804 61.9365 163.147C62.0941 163.484 62.2373 163.735 62.3662 163.899C62.4951 164.064 62.5596 164.229 62.5596 164.394C62.5596 164.465 62.5238 164.526 62.4521 164.576C62.3805 164.626 62.291 164.712 62.1836 164.834C62.0833 164.949 61.9795 165.103 61.8721 165.296C61.6214 165.754 61.4961 166.506 61.4961 167.552C61.4961 168.712 61.5212 169.367 61.5713 169.518C61.6143 169.682 61.6608 169.847 61.7109 170.012C61.7682 170.169 61.8398 170.291 61.9258 170.377C62.1621 170.628 62.4092 170.825 62.667 170.968C62.667 171.19 62.488 171.362 62.1299 171.483C61.9938 171.526 61.8291 171.548 61.6357 171.548ZM66.7168 171.473C66.416 171.358 66.1475 171.204 65.9111 171.011C65.682 170.825 65.4707 170.567 65.2773 170.237C65.0768 169.894 64.9408 169.514 64.8691 169.099C64.7975 168.683 64.5576 168.229 64.1494 167.734C64.0205 167.584 63.9561 167.491 63.9561 167.455C63.9561 167.405 64.0169 167.323 64.1387 167.208C64.2604 167.086 64.3893 166.932 64.5254 166.746C64.6686 166.56 64.7653 166.338 64.8154 166.08C65.016 165.12 65.4886 164.44 66.2334 164.039C66.5628 163.853 66.9102 163.702 67.2754 163.588C67.6621 163.466 68.0202 163.359 68.3496 163.266C68.6862 163.165 69.0049 163.04 69.3057 162.89C69.5921 162.754 69.8213 162.549 69.9932 162.277C70.1794 161.998 70.2689 161.601 70.2617 161.085C70.2546 160.562 70.2331 160.086 70.1973 159.656C70.1686 159.277 70.0791 158.947 69.9287 158.668C69.7783 158.389 69.4919 158.249 69.0693 158.249C68.7829 158.249 68.543 158.353 68.3496 158.561C68.1634 158.768 68.0703 159.03 68.0703 159.345C68.0703 159.552 68.1169 159.799 68.21 160.086C68.3102 160.365 68.4535 160.623 68.6396 160.859C68.8258 161.089 69.0443 161.235 69.2949 161.3C69.1016 161.758 68.7829 161.987 68.3389 161.987C67.8877 161.987 67.4723 161.84 67.0928 161.547C67.1286 161.583 67.0498 161.758 66.8564 162.073C66.7347 162.281 66.5557 162.478 66.3193 162.664C66.0902 162.85 65.8574 162.972 65.6211 163.029C65.3848 163.087 65.195 163.029 65.0518 162.857C65.4242 162.485 65.6104 162.134 65.6104 161.805C65.6104 161.697 65.5602 161.436 65.46 161.021C65.3597 160.605 65.3096 160.312 65.3096 160.14C65.3096 159.266 65.6426 158.561 66.3086 158.023C66.6022 157.78 67.0104 157.533 67.5332 157.282C68.056 157.032 68.6576 156.906 69.3379 156.906C72.1953 156.906 73.624 158.467 73.624 161.59C73.624 162.356 73.7673 163.029 74.0537 163.609C74.1969 163.889 74.4977 164.161 74.9561 164.426C74.9561 164.454 74.9167 164.497 74.8379 164.555C74.752 164.612 74.6481 164.705 74.5264 164.834C74.4046 164.956 74.2829 165.113 74.1611 165.307C74.0251 165.529 73.9176 165.833 73.8389 166.22C73.7673 166.606 73.7314 167.118 73.7314 167.756C73.7314 169.138 74.0967 170.216 74.8271 170.989C74.7627 171.104 74.6266 171.222 74.4189 171.344C74.2614 171.423 74.0072 171.483 73.6562 171.526C73.3053 171.576 72.9652 171.519 72.6357 171.354C72.0342 171.061 71.5544 170.56 71.1963 169.851C70.9886 170.574 70.5983 171.079 70.0254 171.365C69.5527 171.602 69.0264 171.73 68.4463 171.752C67.8662 171.781 67.2897 171.688 66.7168 171.473ZM68.9189 170.044C69.2126 170.044 69.4274 169.99 69.5635 169.883C69.6494 169.826 69.7246 169.768 69.7891 169.711C69.8535 169.654 69.9108 169.564 69.9609 169.442L70.1436 168.98C70.2223 168.787 70.2617 168.182 70.2617 167.165V163.663C70.1686 163.756 70.0469 163.867 69.8965 163.996C69.7533 164.118 69.5778 164.257 69.3701 164.415C68.9691 164.723 68.6432 165.035 68.3926 165.35C68.0632 165.765 67.8984 166.445 67.8984 167.391V167.627C67.8984 169.238 68.2386 170.044 68.9189 170.044ZM81.1865 171.752C80.1123 171.752 79.1598 171.365 78.3291 170.592C77.9281 170.219 77.6058 169.75 77.3623 169.185C77.1188 168.612 76.9971 168.064 76.9971 167.541C76.9971 167.018 76.9756 166.606 76.9326 166.306C76.8896 165.998 76.8395 165.754 76.7822 165.575C76.7321 165.425 76.6318 165.257 76.4814 165.07C76.3311 164.884 76.195 164.727 76.0732 164.598C75.9515 164.469 75.9014 164.415 75.9229 164.437C75.9229 164.401 76.0016 164.322 76.1592 164.2C76.3167 164.071 76.4671 163.871 76.6104 163.599C76.8682 163.133 76.9971 162.417 76.9971 161.45C76.9971 160.011 77.3301 158.897 77.9961 158.109C78.6693 157.314 79.5286 156.917 80.5742 156.917C81.6198 156.917 82.4255 157.297 82.9912 158.056C82.8551 156.366 82.4541 154.883 81.7881 153.608C81.7881 153.358 81.9886 153.168 82.3896 153.039C82.54 152.996 82.7191 152.975 82.9268 152.975C83.6286 152.975 84.2194 153.351 84.6992 154.103C84.735 154.031 84.821 153.916 84.957 153.759C85.1003 153.594 85.2363 153.462 85.3652 153.361C85.7233 153.104 86.0778 152.975 86.4287 152.975C86.7438 152.975 87.0016 153.025 87.2021 153.125C87.4098 153.225 87.528 153.333 87.5566 153.447L87.5996 153.608C87.2773 154.024 87.0195 154.457 86.8262 154.908C86.64 155.352 86.5039 155.879 86.418 156.487C86.3392 157.089 86.2998 157.834 86.2998 158.722V161.45C86.2998 162.918 86.6579 163.871 87.374 164.308C87.4958 164.372 87.528 164.429 87.4707 164.479C87.4206 164.53 87.3239 164.605 87.1807 164.705C87.0446 164.805 86.9014 164.97 86.751 165.199C86.486 165.615 86.3356 166.259 86.2998 167.133C86.307 168.1 86.4036 168.855 86.5898 169.399C86.7832 169.944 87.1198 170.445 87.5996 170.903C87.5996 171.161 87.3991 171.351 86.998 171.473C86.8548 171.523 86.6794 171.548 86.4717 171.548C85.6553 171.548 84.8962 171.118 84.1943 170.259C83.4782 171.254 82.4756 171.752 81.1865 171.752ZM82.0244 170.227C82.1318 170.212 82.2285 170.184 82.3145 170.141C82.4076 170.09 82.4863 170.044 82.5508 170.001C82.6224 169.958 82.6797 169.886 82.7227 169.786C82.7656 169.686 82.8086 169.596 82.8516 169.518C82.8874 169.46 82.9124 169.374 82.9268 169.26C82.9411 169.145 82.9626 168.998 82.9912 168.819C83.0127 168.604 83.0234 168.289 83.0234 167.874V167.176C83.0234 166.388 82.9482 165.829 82.7979 165.5C82.7191 165.335 82.6475 165.199 82.583 165.092C82.5257 164.977 82.4756 164.891 82.4326 164.834C82.361 164.727 82.2894 164.641 82.2178 164.576C82.1462 164.505 82.1104 164.451 82.1104 164.415C82.1104 164.379 82.1605 164.318 82.2607 164.232C82.361 164.139 82.4648 164.025 82.5723 163.889C82.7012 163.731 82.8086 163.43 82.8945 162.986C82.9876 162.542 83.0342 162.03 83.0342 161.45C83.0342 159.588 82.5723 158.657 81.6484 158.657C80.7174 158.657 80.252 159.588 80.252 161.45C80.252 162.882 80.5312 163.831 81.0898 164.297C81.2116 164.397 81.1901 164.505 81.0254 164.619C80.8607 164.734 80.6995 164.963 80.542 165.307C80.4131 165.586 80.3271 165.908 80.2842 166.273C80.2484 166.632 80.234 166.972 80.2412 167.294C80.2555 167.609 80.2627 167.845 80.2627 168.003L80.2949 168.658C80.3021 168.794 80.3128 168.912 80.3271 169.013C80.3415 169.106 80.3558 169.181 80.3701 169.238C80.4059 169.367 80.4561 169.51 80.5205 169.668C80.585 169.826 80.6673 169.94 80.7676 170.012C81.0182 170.176 81.2581 170.259 81.4873 170.259C81.7236 170.259 81.9027 170.248 82.0244 170.227ZM91.6602 171.473C91.3594 171.358 91.0908 171.204 90.8545 171.011C90.6253 170.825 90.4141 170.567 90.2207 170.237C90.0202 169.894 89.8841 169.514 89.8125 169.099C89.7409 168.683 89.501 168.229 89.0928 167.734C88.9639 167.584 88.8994 167.491 88.8994 167.455C88.8994 167.405 88.9603 167.323 89.082 167.208C89.2038 167.086 89.3327 166.932 89.4688 166.746C89.612 166.56 89.7087 166.338 89.7588 166.08C89.9593 165.12 90.432 164.44 91.1768 164.039C91.5062 163.853 91.8535 163.702 92.2188 163.588C92.6055 163.466 92.9635 163.359 93.293 163.266C93.6296 163.165 93.9482 163.04 94.249 162.89C94.5355 162.754 94.7646 162.549 94.9365 162.277C95.1227 161.998 95.2122 161.601 95.2051 161.085C95.1979 160.562 95.1764 160.086 95.1406 159.656C95.112 159.277 95.0225 158.947 94.8721 158.668C94.7217 158.389 94.4352 158.249 94.0127 158.249C93.7262 158.249 93.4863 158.353 93.293 158.561C93.1068 158.768 93.0137 159.03 93.0137 159.345C93.0137 159.552 93.0602 159.799 93.1533 160.086C93.2536 160.365 93.3968 160.623 93.583 160.859C93.7692 161.089 93.9876 161.235 94.2383 161.3C94.0449 161.758 93.7262 161.987 93.2822 161.987C92.8311 161.987 92.4157 161.84 92.0361 161.547C92.0719 161.583 91.9932 161.758 91.7998 162.073C91.6781 162.281 91.499 162.478 91.2627 162.664C91.0335 162.85 90.8008 162.972 90.5645 163.029C90.3281 163.087 90.1383 163.029 89.9951 162.857C90.3675 162.485 90.5537 162.134 90.5537 161.805C90.5537 161.697 90.5036 161.436 90.4033 161.021C90.3031 160.605 90.2529 160.312 90.2529 160.14C90.2529 159.266 90.5859 158.561 91.252 158.023C91.5456 157.78 91.9538 157.533 92.4766 157.282C92.9993 157.032 93.6009 156.906 94.2812 156.906C97.1387 156.906 98.5674 158.467 98.5674 161.59C98.5674 162.356 98.7106 163.029 98.9971 163.609C99.1403 163.889 99.4411 164.161 99.8994 164.426C99.8994 164.454 99.86 164.497 99.7812 164.555C99.6953 164.612 99.5915 164.705 99.4697 164.834C99.348 164.956 99.2262 165.113 99.1045 165.307C98.9684 165.529 98.861 165.833 98.7822 166.22C98.7106 166.606 98.6748 167.118 98.6748 167.756C98.6748 169.138 99.04 170.216 99.7705 170.989C99.7061 171.104 99.57 171.222 99.3623 171.344C99.2048 171.423 98.9505 171.483 98.5996 171.526C98.2487 171.576 97.9085 171.519 97.5791 171.354C96.9775 171.061 96.4977 170.56 96.1396 169.851C95.932 170.574 95.5417 171.079 94.9688 171.365C94.4961 171.602 93.9697 171.73 93.3896 171.752C92.8096 171.781 92.2331 171.688 91.6602 171.473ZM93.8623 170.044C94.1559 170.044 94.3708 169.99 94.5068 169.883C94.5928 169.826 94.668 169.768 94.7324 169.711C94.7969 169.654 94.8542 169.564 94.9043 169.442L95.0869 168.98C95.1657 168.787 95.2051 168.182 95.2051 167.165V163.663C95.112 163.756 94.9902 163.867 94.8398 163.996C94.6966 164.118 94.5212 164.257 94.3135 164.415C93.9124 164.723 93.5866 165.035 93.3359 165.35C93.0065 165.765 92.8418 166.445 92.8418 167.391V167.627C92.8418 169.238 93.182 170.044 93.8623 170.044ZM106.033 173.224C105.747 173.152 105.604 172.898 105.604 172.461C105.604 172.031 105.808 171.641 106.216 171.29C106.058 171.161 105.915 170.975 105.786 170.731C105.664 170.488 105.604 170.277 105.604 170.098C105.604 169.911 105.618 169.768 105.646 169.668C105.675 169.568 105.711 169.493 105.754 169.442C105.818 169.356 105.911 169.296 106.033 169.26C106.434 169.754 106.989 170.001 107.698 170.001C107.999 170.001 108.217 169.937 108.354 169.808C108.497 169.686 108.59 169.571 108.633 169.464C108.676 169.356 108.712 169.26 108.74 169.174C108.769 169.095 108.794 168.977 108.815 168.819C108.837 168.662 108.851 168.526 108.858 168.411C108.873 168.304 108.88 168.146 108.88 167.938C108.887 167.731 108.891 167.559 108.891 167.423V166.843C108.891 164.888 108.543 163.617 107.849 163.029C107.698 162.886 107.698 162.75 107.849 162.621C107.927 162.557 108.024 162.46 108.139 162.331C108.253 162.195 108.368 162.005 108.482 161.762C108.755 161.182 108.891 160.286 108.891 159.076C108.891 158.26 108.848 157.597 108.762 157.089C108.683 156.573 108.547 156.144 108.354 155.8C108.167 155.456 107.913 155.141 107.591 154.854C107.591 154.604 107.791 154.414 108.192 154.285C108.343 154.242 108.518 154.221 108.719 154.221C109.406 154.221 109.99 154.597 110.47 155.349C110.506 155.277 110.591 155.162 110.728 155.005C110.871 154.84 111.007 154.708 111.136 154.607C111.494 154.35 111.82 154.221 112.113 154.221C112.636 154.221 112.976 154.296 113.134 154.446C113.291 154.582 113.381 154.718 113.402 154.854C112.908 155.291 112.572 155.796 112.393 156.369C112.264 156.763 112.178 157.221 112.135 157.744C112.092 158.26 112.081 158.775 112.103 159.291C112.131 159.799 112.171 160.236 112.221 160.602C112.307 161.153 112.432 161.565 112.597 161.837C112.761 162.102 112.912 162.302 113.048 162.438C113.184 162.567 113.252 162.707 113.252 162.857C113.252 162.929 113.213 162.997 113.134 163.062C113.055 163.133 112.958 163.241 112.844 163.384C112.736 163.527 112.625 163.72 112.511 163.964C112.239 164.551 112.103 165.514 112.103 166.854C112.103 168.887 111.784 170.348 111.146 171.236C110.516 172.132 109.478 172.579 108.031 172.579C107.401 172.579 106.735 172.794 106.033 173.224ZM119.289 171.999C117.971 171.999 116.836 171.648 115.884 170.946C115.425 170.603 115.057 170.159 114.777 169.614C114.505 169.063 114.369 168.54 114.369 168.046C114.369 167.638 114.416 167.28 114.509 166.972C114.609 166.657 114.706 166.363 114.799 166.091C114.892 165.812 114.938 165.525 114.938 165.231C114.938 164.938 114.817 164.626 114.573 164.297C114.666 164.225 114.799 164.189 114.971 164.189C115.271 164.189 115.547 164.293 115.798 164.501C116.056 164.709 116.263 164.966 116.421 165.274C116.586 165.582 116.668 165.89 116.668 166.198C117.241 165.89 117.749 165.765 118.193 165.822C118.645 165.88 118.931 166.001 119.053 166.188C119.174 166.367 119.235 166.524 119.235 166.66V166.746C118.82 166.796 118.455 166.972 118.14 167.272C117.832 167.566 117.678 167.942 117.678 168.4C117.678 168.859 117.825 169.199 118.118 169.421C118.412 169.643 118.784 169.754 119.235 169.754C119.679 169.754 120.102 169.578 120.503 169.228C120.904 168.869 121.104 168.368 121.104 167.724C121.104 166.785 120.872 166.016 120.406 165.414C119.941 164.805 119.321 164.501 118.548 164.501C118.34 164.501 118.107 164.533 117.85 164.598C117.592 164.662 117.445 164.694 117.409 164.694L117.323 164.673C117.252 164.644 117.187 164.54 117.13 164.361C116.972 163.803 116.679 163.355 116.249 163.019C114.874 161.909 114.187 160.433 114.187 158.593C114.187 157.11 114.67 155.968 115.637 155.166C116.611 154.364 117.957 153.963 119.676 153.963C120.428 153.963 121.087 154.106 121.652 154.393C122.225 154.679 122.666 154.958 122.974 155.23C123.668 155.854 124.016 156.663 124.016 157.658C124.016 157.988 123.93 158.428 123.758 158.979C123.586 159.524 123.5 159.857 123.5 159.979C123.5 160.401 123.679 160.813 124.037 161.214C123.908 161.171 123.726 161.149 123.489 161.149C123.253 161.149 123.027 161.089 122.812 160.967C122.605 160.845 122.44 160.695 122.318 160.516C122.089 160.193 121.914 159.81 121.792 159.366C121.742 159.445 121.559 159.527 121.244 159.613C120.929 159.692 120.664 159.731 120.449 159.731C119.826 159.731 119.457 159.549 119.343 159.184C119.293 159.076 119.268 158.969 119.268 158.861C119.712 158.84 120.098 158.725 120.428 158.518C120.764 158.303 120.933 157.966 120.933 157.508C120.933 157.042 120.793 156.684 120.514 156.434C120.242 156.176 119.934 156.047 119.59 156.047C118.465 156.047 117.903 156.72 117.903 158.066C117.903 159.205 118.193 160.054 118.773 160.612C119.06 160.884 119.354 161.028 119.654 161.042C119.962 161.056 120.306 161.01 120.686 160.902C121.015 160.809 121.215 160.763 121.287 160.763C121.337 160.763 121.395 160.856 121.459 161.042C121.688 161.679 121.964 162.109 122.286 162.331C123.067 162.847 123.686 163.509 124.145 164.318C124.603 165.128 124.832 165.991 124.832 166.907C124.832 167.824 124.671 168.601 124.349 169.238C124.026 169.876 123.6 170.391 123.07 170.785C121.982 171.594 120.721 171.999 119.289 171.999Z" fill="#FF9811"/>
<defs>
<filter id="filter0_d_421_2" x="48.2435" y="9.62598" width="64.9511" height="76.5221" filterUnits="userSpaceOnUse" color-interpolation-filters="sRGB">
<feFlood flood-opacity="0" result="BackgroundImageFix"/>
<feColorMatrix in="SourceAlpha" type="matrix" values="0 0 0 0 0 0 0 0 0 0 0 0 0 0 0 0 0 0 127 0" result="hardAlpha"/>
<feOffset dy="6"/>
<feComposite in2="hardAlpha" operator="out"/>
<feColorMatrix type="matrix" values="0 0 0 0 0 0 0 0 0 0 0 0 0 0 0 0 0 0 0.25 0"/>
<feBlend mode="normal" in2="BackgroundImageFix" result="effect1_dropShadow_421_2"/>
<feBlend mode="normal" in="SourceGraphic" in2="effect1_dropShadow_421_2" result="shape"/>
</filter>
</defs>
</svg>
