<?xml version="1.0" encoding="UTF-8"?>
<svg width="304px" height="68px" viewBox="0 0 304 68" version="1.1" xmlns="http://www.w3.org/2000/svg" xmlns:xlink="http://www.w3.org/1999/xlink">
    <title>mk-app</title>
    <defs>
        <linearGradient x1="-16.239489%" y1="58.7215763%" x2="113.722439%" y2="58.7215763%" id="linearGradient-1">
            <stop stop-color="#32B2FF" offset="0%"></stop>
            <stop stop-color="#57D4F2" offset="48.0603593%"></stop>
            <stop stop-color="#00F772" offset="100%"></stop>
        </linearGradient>
        <linearGradient x1="84.2703349%" y1="104.022129%" x2="10.7767644%" y2="9.9805622%" id="linearGradient-2">
            <stop stop-color="#00F2FF" offset="0%"></stop>
            <stop stop-color="#FE48EB" offset="49.1504589%"></stop>
            <stop stop-color="#FEAE48" offset="100%"></stop>
        </linearGradient>
        <linearGradient x1="-16.239489%" y1="58.7215763%" x2="113.722439%" y2="58.7215763%" id="linearGradient-3">
            <stop stop-color="#32B2FF" offset="0%"></stop>
            <stop stop-color="#57D4F2" offset="48.0603593%"></stop>
            <stop stop-color="#00F772" offset="100%"></stop>
        </linearGradient>
    </defs>
    <g id="Page-1" stroke="none" stroke-width="1" fill="none" fill-rule="evenodd">
        <g id="Profile-Photo" transform="translate(-50.000000, -167.000000)">
            <g id="mk-app" transform="translate(50.000000, 167.000000)">
                <path d="M113.824943,53.01875 C114.579318,53.01875 115.187911,52.7840625 115.650724,52.3146875 C116.113536,51.8453125 116.344943,51.24 116.344943,50.49875 L116.344943,50.49875 L116.344943,33.2553125 C116.344943,30.4953125 115.841193,28.1107813 114.833693,26.1017188 C113.826193,24.0926563 112.421661,22.5465625 110.620099,21.4634375 C108.818536,20.3803125 106.749943,19.83875 104.414318,19.83875 C101.897443,19.83875 99.6497864,20.39875 97.6713489,21.51875 C96.0638684,22.42875 94.7397394,23.6363361 93.6989618,25.1415082 L93.675,25.177 L93.5807214,25.0204498 C92.713241,23.6438629 91.6225183,22.5276959 90.3085535,21.6719489 L89.9754114,21.4634375 C88.1738489,20.3803125 86.1052551,19.83875 83.7696301,19.83875 C81.4377551,19.83875 79.3518176,20.39875 77.5118176,21.51875 C76.5918176,22.07875 75.7700598,22.74625 75.0465442,23.52125 L74.954,23.624 L74.9543176,22.76 C74.9543176,22.081625 74.766752,21.5153844 74.3916208,21.0612781 L74.2596301,20.9140625 C73.7965051,20.4371875 73.1880676,20.19875 72.4343176,20.19875 C71.6655676,20.19875 71.0465051,20.4371875 70.5771301,20.9140625 C70.1077551,21.3909375 69.8730676,22.00625 69.8730676,22.76 L69.8730676,22.76 L69.8730676,50.49875 C69.8730676,51.24 70.1077551,51.8453125 70.5771301,52.3146875 C71.0465051,52.7840625 71.6655676,53.01875 72.4343176,53.01875 C73.1880676,53.01875 73.7965051,52.7840625 74.2596301,52.3146875 C74.7227551,51.8453125 74.9543176,51.24 74.9543176,50.49875 L74.9543176,50.49875 L74.954,32.997 L74.959509,32.6441699 C75.0252658,30.4322559 75.7157122,28.598558 77.0308482,27.1430761 L77.2436926,26.9164063 C78.7699426,25.3517187 80.7115051,24.569375 83.0683801,24.569375 C85.2902551,24.569375 87.1041614,25.3317188 88.5100989,26.8564063 C89.9160364,28.3810938 90.6190051,30.5140625 90.6190051,33.2553125 L90.6190051,33.2553125 L90.6190051,50.49875 C90.6190051,51.24 90.8605676,51.8453125 91.3436926,52.3146875 C91.8268176,52.7840625 92.4393176,53.01875 93.1811926,53.01875 C93.9349426,53.01875 94.5433801,52.7840625 95.0065051,52.3146875 C95.4696301,51.8453125 95.7011926,51.24 95.7011926,50.49875 L95.7011926,50.49875 L95.7011926,33.2553125 L95.7011926,33.2553125 L95.701,33.246 L95.7023937,32.8779369 C95.7430542,30.5689764 96.4117298,28.6725106 97.7084205,27.1885395 L97.9183801,26.9576562 C99.4246301,25.3654688 101.356193,24.569375 103.713068,24.569375 C105.934318,24.569375 107.748068,25.3317188 109.154318,26.8564063 C110.560568,28.3810938 111.263693,30.5140625 111.263693,33.2553125 L111.263693,33.2553125 L111.263693,50.49875 C111.263693,51.24 111.505255,51.8453125 111.98838,52.3146875 C112.471505,52.7840625 113.083693,53.01875 113.824943,53.01875 Z M149.193328,53.3065625 C149.82114,53.3665625 150.413484,53.164375 150.970359,52.7 C151.539109,52.223125 151.846609,51.6839062 151.892859,51.0823437 C151.939109,50.4807812 151.743796,49.9153125 151.306921,49.3859375 L151.306921,49.3859375 L139.089,34.347 L150.790359,23.811875 C151.255546,23.408 151.521904,22.9446406 151.589432,22.4217969 L151.604578,22.2453125 C151.630515,21.6496875 151.405046,21.0934375 150.928171,20.5765625 C150.463796,20.0596875 149.937703,19.7882813 149.34989,19.7623437 C148.762078,19.7364063 148.209734,19.961875 147.692859,20.43875 L147.692859,20.43875 L131.492,35.024 L131.492859,8.6234375 C131.492859,7.95575 131.307825,7.4034875 130.937756,6.96665 L130.807546,6.8253125 C130.350671,6.3684375 129.751609,6.14 129.010359,6.14 C128.268484,6.14 127.669109,6.3684375 127.212234,6.8253125 C126.755359,7.2821875 126.526921,7.8815625 126.526921,8.6234375 L126.526921,8.6234375 L126.526921,50.5165625 C126.526921,51.2584375 126.755359,51.8578125 127.212234,52.3146875 C127.669109,52.7715625 128.268484,53 129.010359,53 C129.751609,53 130.350671,52.7715625 130.807546,52.3146875 C131.264421,51.8578125 131.492859,51.2584375 131.492859,50.5165625 L131.492859,50.5165625 L131.492,41.187 L135.541,37.542 L147.596296,52.38125 C147.989484,52.8824375 148.460001,53.1823906 149.007848,53.2811094 L149.193328,53.3065625 Z M174.032789,39.12125 C174.774664,39.12125 175.384039,38.8828125 175.860914,38.4059375 C176.337789,37.9290625 176.576227,37.33375 176.576227,36.62 C176.576227,35.86625 176.337789,35.2509375 175.860914,34.7740625 C175.384039,34.2971875 174.774664,34.05875 174.032789,34.05875 L174.032789,34.05875 L160.154977,34.05875 C159.440602,34.05875 158.842008,34.2971875 158.359196,34.7740625 C157.876383,35.2509375 157.634977,35.86625 157.634977,36.62 C157.634977,37.33375 157.876383,37.9290625 158.359196,38.4059375 C158.842008,38.8828125 159.440602,39.12125 160.154977,39.12125 L160.154977,39.12125 L174.032789,39.12125 Z M197.871539,53.28125 C200.795289,53.28125 203.408571,52.5926562 205.711383,51.2154687 C207.336898,50.2433364 208.722931,49.025339 209.869484,47.5614765 L210.074,47.292 L210.074977,50.49875 C210.074977,51.165875 210.270516,51.7228906 210.661594,52.1697969 L210.799196,52.3146875 C211.282008,52.7840625 211.895289,53.01875 212.639039,53.01875 C213.382789,53.01875 213.995133,52.7840625 214.476071,52.3146875 C214.957008,51.8453125 215.197477,51.24 215.197477,50.49875 L215.197477,50.49875 L215.197477,36.62 C215.169977,33.4325 214.426227,30.57875 212.966227,28.05875 C211.506227,25.53875 209.529977,23.54875 207.037477,22.08875 C204.544977,20.62875 201.723414,19.89875 198.572789,19.89875 C195.422164,19.89875 192.590758,20.62875 190.078571,22.08875 C187.566383,23.54875 185.580289,25.5373438 184.120289,28.0545312 C182.660289,30.5717188 181.930289,33.4284375 181.930289,36.6246875 C181.930289,39.7815625 182.628883,42.618125 184.026071,45.134375 C185.423258,47.650625 187.322477,49.6375 189.723727,51.095 C192.124977,52.5525 194.840914,53.28125 197.871539,53.28125 Z M198.572789,48.711875 C196.377789,48.711875 194.394508,48.1873437 192.622946,47.1382812 C190.851383,46.0892188 189.447164,44.6454688 188.410289,42.8070313 C187.373414,40.9685937 186.854977,38.905 186.854977,36.61625 C186.854977,34.289375 187.373414,32.214375 188.410289,30.39125 C189.447164,28.568125 190.851696,27.1251562 192.623883,26.0623437 C194.396071,24.9995313 196.379664,24.468125 198.574664,24.468125 C200.807789,24.468125 202.800446,24.9995313 204.552633,26.0623437 C206.304821,27.1251562 207.689352,28.5689063 208.706227,30.3935938 C209.723102,32.2182813 210.231539,34.2928125 210.231539,36.6171875 C210.231539,38.9021875 209.723102,40.9646875 208.706227,42.8046875 C207.689352,44.6446875 206.304664,46.0892188 204.552164,47.1382812 C202.799664,48.1873437 200.806539,48.711875 198.572789,48.711875 Z M226.795868,67.04 C227.547743,67.04 228.155712,66.8053125 228.619774,66.3359375 C229.083837,65.8665625 229.315868,65.2475 229.315868,64.47875 L229.315868,64.47875 L229.315868,47.28125 C230.660868,49.1 232.392587,50.5546875 234.511024,51.6453125 C236.629462,52.7359375 238.979305,53.28125 241.560555,53.28125 C244.591805,53.28125 247.307899,52.5525 249.708837,51.095 C252.109774,49.6375 254.008993,47.650625 255.406493,45.134375 C256.803993,42.618125 257.502743,39.7815625 257.502743,36.6246875 C257.502743,33.4284375 256.772743,30.5717188 255.312743,28.0545313 C253.852743,25.5373438 251.868837,23.54875 249.361024,22.08875 C246.853212,20.62875 244.003368,19.89875 240.811493,19.89875 C237.699618,19.89875 234.896962,20.6210938 232.403524,22.0657813 C229.910087,23.5104688 227.935243,25.4870313 226.478993,27.9954688 C225.022743,30.5039063 224.274618,33.3234375 224.234618,36.4540625 L224.234618,36.4540625 L224.234618,64.47875 C224.234618,65.2475 224.469305,65.8665625 224.93868,66.3359375 C225.408055,66.8053125 226.027118,67.04 226.795868,67.04 Z M240.81618,48.711875 C238.620555,48.711875 236.636649,48.18875 234.864462,47.1425 C233.092274,46.09625 231.705243,44.6525 230.703368,42.81125 C229.701493,40.97 229.200555,38.9059375 229.200555,36.6190625 C229.200555,34.2934375 229.701649,32.2196875 230.703837,30.3978125 C231.706024,28.5759375 233.09368,27.1321875 234.866805,26.0665625 C236.63993,25.0009375 238.62243,24.468125 240.814305,24.468125 C243.04493,24.468125 245.044618,24.9995313 246.813368,26.0623437 C248.582118,27.1251562 249.978055,28.5689063 251.00118,30.3935938 C252.024305,32.2182813 252.535868,34.2928125 252.535868,36.6171875 C252.535868,38.9021875 252.024305,40.9646875 251.00118,42.8046875 C249.978055,44.6446875 248.583524,46.0892188 246.817587,47.1382812 C245.051649,48.1873437 243.05118,48.711875 240.81618,48.711875 Z M269.142025,67.04 C269.8939,67.04 270.501869,66.8053125 270.965931,66.3359375 C271.429994,65.8665625 271.662025,65.2475 271.662025,64.47875 L271.662025,64.47875 L271.662025,47.28125 C273.007025,49.1 274.738744,50.5546875 276.857181,51.6453125 C278.975619,52.7359375 281.325463,53.28125 283.906713,53.28125 C286.937963,53.28125 289.654056,52.5525 292.054994,51.095 C294.455931,49.6375 296.35515,47.650625 297.75265,45.134375 C299.15015,42.618125 299.8489,39.7815625 299.8489,36.6246875 C299.8489,33.4284375 299.1189,30.5717188 297.6589,28.0545313 C296.1989,25.5373438 294.214994,23.54875 291.707181,22.08875 C289.199369,20.62875 286.349525,19.89875 283.15765,19.89875 C280.045775,19.89875 277.243119,20.6210938 274.749681,22.0657813 C272.256244,23.5104688 270.2814,25.4870313 268.82515,27.9954688 C267.3689,30.5039063 266.620775,33.3234375 266.580775,36.4540625 L266.580775,36.4540625 L266.580775,64.47875 C266.580775,65.2475 266.815463,65.8665625 267.284838,66.3359375 C267.754213,66.8053125 268.373275,67.04 269.142025,67.04 Z M283.162338,48.711875 C280.966713,48.711875 278.982806,48.18875 277.210619,47.1425 C275.438431,46.09625 274.0514,44.6525 273.049525,42.81125 C272.04765,40.97 271.546713,38.9059375 271.546713,36.6190625 C271.546713,34.2934375 272.047806,32.2196875 273.049994,30.3978125 C274.052181,28.5759375 275.439838,27.1321875 277.212963,26.0665625 C278.986088,25.0009375 280.968588,24.468125 283.160463,24.468125 C285.391088,24.468125 287.390775,24.9995313 289.159525,26.0623437 C290.928275,27.1251562 292.324213,28.5689063 293.347338,30.3935938 C294.370463,32.2182813 294.882025,34.2928125 294.882025,36.6171875 C294.882025,38.9021875 294.370463,40.9646875 293.347338,42.8046875 C292.324213,44.6446875 290.929681,46.0892188 289.163744,47.1382812 C287.397806,48.1873437 285.397338,48.711875 283.162338,48.711875 Z" fill="url(#linearGradient-1)" fill-rule="nonzero"></path>
                <g id="logo" transform="translate(0.000000, 6.000000)">
                    <rect id="Rectangle" stroke="url(#linearGradient-2)" stroke-width="2" x="2" y="2" width="51" height="51" rx="10"></rect>
                    <path d="M11.8911875,36.2308125 C12.2485625,36.3065625 12.585875,36.2409375 12.903125,36.0339375 L12.903125,36.0339375 L26.6860625,27.7539375 C27.2343125,27.4291875 27.5084375,26.9686875 27.5084375,26.3724375 C27.5084375,25.8646875 27.2343125,25.40775 26.6860625,25.001625 L26.6860625,25.001625 L12.903125,16.710375 C12.38825,16.457625 11.8764687,16.4517188 11.3677813,16.6926563 C10.8590937,16.9335938 10.60475,17.3521875 10.60475,17.9484375 C10.60475,18.5521875 10.854875,19.009125 11.355125,19.31925 L11.355125,19.31925 L23.136,26.321 L11.355125,33.364875 C10.9049,33.6655875 10.6572763,34.0559063 10.6122538,34.5358313 L10.60475,34.699125 C10.60475,35.11275 10.7298125,35.4525 10.9799375,35.718375 C11.2300625,35.98425 11.5338125,36.1550625 11.8911875,36.2308125 Z M46.1508125,42.0740625 C46.5644375,42.0740625 46.9179688,41.923125 47.2114062,41.62125 C47.5048438,41.319375 47.6515625,40.957875 47.6515625,40.53675 C47.6515625,40.1085 47.5048438,39.7453125 47.2114062,39.4471875 C46.9179688,39.1490625 46.5644375,39 46.1508125,39 L46.1508125,39 L29.017625,39 C28.5725,39 28.2050937,39.1490625 27.9154063,39.4471875 C27.6257188,39.7453125 27.480875,40.1085 27.480875,40.53675 C27.480875,40.957875 27.6257188,41.319375 27.9154063,41.62125 C28.2050937,41.923125 28.5725,42.0740625 29.017625,42.0740625 L29.017625,42.0740625 L46.1508125,42.0740625 Z" id="&gt;_" fill="url(#linearGradient-3)" fill-rule="nonzero"></path>
                </g>
            </g>
        </g>
    </g>
</svg>